<svg width="80" height="80" viewBox="0 0 80 80" fill="none" xmlns="http://www.w3.org/2000/svg">
<rect x="0.5" y="0.5" width="79" height="79" rx="39.5" stroke="#FCFCFC"/>
<path fill-rule="evenodd" clip-rule="evenodd" d="M39.2652 17.9382C38.9287 18.1738 38.9258 18.2116 38.9258 22.2893C38.9258 26.1993 38.9409 26.4179 39.2311 26.7081C39.6237 27.1006 40.3653 27.1006 40.7579 26.7081C41.0481 26.4179 41.0632 26.1993 41.0632 22.3043C41.0632 18.5277 41.0412 18.186 40.784 17.9532C40.4325 17.635 39.7081 17.6278 39.2652 17.9382ZM20.7461 24.8643C20.5006 25.1098 20.2998 25.4127 20.2998 25.5376C20.2998 25.9019 21.3475 27.1197 23.1779 28.8837C24.5414 30.1976 24.9688 30.5249 25.3217 30.5249C25.8733 30.5249 26.3624 30.1222 26.4963 29.5577C26.5914 29.1568 26.4259 28.9519 24.2455 26.7715C22.5789 25.1049 21.7899 24.418 21.5421 24.418C21.3498 24.418 20.9916 24.6188 20.7461 24.8643ZM55.8188 26.6915C53.8528 28.6455 53.5314 29.0313 53.5314 29.4376C53.5314 30.0834 53.965 30.5249 54.5992 30.5249C55.0443 30.5249 55.3415 30.3016 56.8805 28.8107C59.7281 26.0521 59.9924 25.6138 59.2536 24.875C59.0023 24.6237 58.6412 24.418 58.4514 24.418C58.2108 24.418 57.4133 25.1069 55.8188 26.6915ZM38.2388 30.9394C36.4437 31.1877 34.3463 32.0237 32.5946 33.1892C28.0114 36.2388 25.8434 42.2057 27.3905 47.5119C27.6052 48.248 27.7808 48.9498 27.7808 49.0715C27.7808 49.5289 27.1827 49.6089 23.7656 49.6089C20.5322 49.6089 20.3186 49.6266 19.9388 49.9254C19.453 50.3075 19.4073 50.9423 19.8284 51.4622L20.1201 51.8226H39.965C59.2656 51.8226 59.8186 51.8147 60.1311 51.5318C60.6003 51.1072 60.5611 50.3271 60.0502 49.9254C59.669 49.6254 59.4591 49.6089 56.0232 49.6089C53.234 49.6089 52.3603 49.5631 52.2334 49.4103C52.113 49.2651 52.1656 48.9064 52.4299 48.0742C54.2623 42.3042 52.1371 36.2696 47.1192 32.9941C44.5815 31.3373 41.1321 30.5393 38.2388 30.9394ZM42.6724 33.5023C43.1728 33.6284 44.1663 34.0219 44.88 34.3767C46.5887 35.226 48.671 37.2434 49.4927 38.8455C50.4337 40.6806 50.6815 41.7442 50.6815 43.9484C50.6815 46.0687 50.5241 46.8355 49.7311 48.5784L49.2623 49.6089H39.9945H30.7267L30.2579 48.5784C29.4641 46.8338 29.3075 46.0693 29.3075 43.9402C29.3075 42.2892 29.3652 41.8089 29.6852 40.8C30.2343 39.0687 31.0363 37.7987 32.5111 36.3252C33.9191 34.9185 35.0426 34.2234 36.8611 33.6342C38.194 33.2022 41.2099 33.1338 42.6724 33.5023ZM13.9876 43.1706C13.6461 43.5478 13.6612 44.4567 14.0142 44.7761C14.2592 44.9979 14.7901 45.0287 18.3594 45.0287C22.3455 45.0287 22.4314 45.0222 22.7366 44.6945C23.1343 44.2677 23.1343 43.6524 22.7366 43.2255C22.4313 42.8977 22.3463 42.8913 18.3328 42.8913C14.562 42.8913 14.2204 42.9133 13.9876 43.1706ZM57.2464 43.1967C57.0785 43.3646 56.9411 43.644 56.9411 43.8174C56.9411 44.1765 57.2108 44.7454 57.4601 44.9119C57.5525 44.9736 59.4162 45.0251 61.6017 45.0264C66.1327 45.029 66.254 45.0017 66.254 43.975C66.254 42.899 66.2212 42.8913 61.6237 42.8913C57.7553 42.8913 57.5365 42.9066 57.2464 43.1967ZM29.38 56.0874C28.9276 56.5397 28.8963 57.0779 29.2939 57.569L29.5858 57.9295L39.9084 57.9709L50.2311 58.0121L50.6261 57.6171C50.9464 57.2968 51.0027 57.1307 50.9241 56.7382C50.7235 55.7348 51.398 55.7962 40.0617 55.7507L29.7579 55.7095L29.38 56.0874Z" fill="#FCFCFC"/>
</svg>
