<svg width="80" height="80" viewBox="0 0 80 80" fill="none" xmlns="http://www.w3.org/2000/svg">
<rect x="0.5" y="0.5" width="79" height="79" rx="39.5" stroke="#FCFCFC"/>
<path fill-rule="evenodd" clip-rule="evenodd" d="M30.2763 22.2147C28.4472 22.4959 27.3042 22.7647 25.1309 23.4242L23.1963 24.0111L22.0595 23.7003C19.4578 22.989 19.0176 22.9235 18.4476 23.1635C17.8481 23.4159 17.3635 24.1184 17.3637 24.7348C17.3637 24.9667 17.5733 25.9478 17.8298 26.9151L18.296 28.6738C18.296 28.6738 18.0182 29.6957 17.8731 30.3584C17.063 34.0585 16.7395 37.3189 17.8946 41.515C18.0534 42.0919 18.3545 42.976 18.3545 42.976L18.0085 44.4665C17.4485 46.8783 17.4358 47.0648 17.7876 47.695C18.3778 48.7521 18.9796 48.8261 21.584 48.1628L23.2227 47.7454L25.0742 48.3126C26.0925 48.6246 26.949 48.8992 26.9776 48.923C27.0061 48.9466 26.985 49.4431 26.9307 50.0264C26.8383 51.02 26.8112 51.0868 26.5016 51.0868C26.3198 51.0868 26.012 51.1597 25.8178 51.2488C24.8973 51.671 25.4591 53.7737 26.7536 54.7513L27.2049 55.0923L43.0505 55.1336C51.7655 55.1564 59.1696 55.1356 59.5041 55.0877C59.9535 55.0232 60.2778 54.8472 60.7464 54.4139C61.5037 53.7133 61.758 53.1628 61.758 52.2237C61.758 51.4383 61.4493 51.0868 60.7596 51.0868C60.4036 51.0868 60.3767 51.0406 60.2903 50.2787C59.9528 47.3078 58.8323 44.425 57.0342 41.9018C56.3032 40.8761 53.6617 38.1567 53.3963 38.1567C53.3315 38.1567 53.2469 36.971 53.2082 35.5215C53.1471 33.23 53.0793 32.6221 52.6889 30.8594C52.2004 28.6539 52.1995 28.7338 52.7341 26.7222C53.336 24.4568 53.2637 23.9445 52.0906 23.2414C51.1841 22.698 49.4053 23.4804 49.4053 23.4804L47.2944 24.0146L45.7657 23.5708C43.9441 23.0418 42.1392 22.6713 39.4904 22.2826C37.1353 21.9368 32.3133 21.9014 30.2763 22.2147ZM39.5602 24.1841C41.6414 24.4575 43.4039 24.8291 45.5479 25.4464L47.2775 25.9443L49.233 25.442C50.3084 25.1657 51.215 24.9664 51.2475 24.9992C51.2799 25.0319 51.0781 25.893 50.7988 26.9128L50.2911 28.7669L50.7144 30.5456C51.1414 32.3395 51.4269 34.5463 51.4269 36.0528V36.8703L50.3302 36.3919C49.0578 35.8369 46.9947 35.2551 45.8267 35.1221L45.0139 35.0295L45.7231 34.2389C46.8948 32.9329 47.0564 32.1354 46.3752 31.0198C45.8756 30.2014 45.2346 29.9893 43.414 30.0405C41.9485 30.0815 41.7933 30.1129 41.3429 30.4587C40.769 30.8995 40.3979 31.6155 40.3979 32.2827C40.3979 32.82 40.9523 33.7789 41.6357 34.4235C41.8763 34.6505 42.0732 34.879 42.0732 34.9311C42.0732 34.9834 41.7423 35.0652 41.3379 35.1131C39.499 35.3307 36.6067 36.334 35.7361 37.0564C35.41 37.3271 35.2324 37.5947 35.2324 37.8156C35.2324 38.1941 35.6769 38.7189 35.9973 38.7189C36.1109 38.7189 36.8214 38.4683 37.5761 38.1619C40.0781 37.1465 42.0469 36.8008 44.5163 36.9432C51.616 37.3526 57.5393 43.0415 58.3468 50.2264L58.4434 51.0868H43.581H28.7186L28.8382 50.1381C29.1164 47.9317 30.099 45.3141 31.3418 43.4685C31.6695 42.9819 32.6791 41.815 33.5854 40.875C35.3007 39.0966 35.3498 38.9997 34.8405 38.4027C34.3335 37.8085 33.3931 38.2872 31.7222 39.9899C30.1192 41.6237 28.4458 44.3449 27.7719 46.4137C27.6397 46.8195 27.4603 47.1516 27.3733 47.1516C27.2863 47.1516 26.3213 46.854 25.229 46.4904L23.243 45.8292L21.3926 46.2758C20.3749 46.5215 19.5125 46.6924 19.4761 46.6557C19.4396 46.619 19.6017 45.7236 19.8361 44.6659L20.2623 42.7427L19.9371 41.8727C19.3503 40.3034 19.1325 38.7234 19.1437 36.1189C19.1548 33.5354 19.2632 32.5961 19.8245 30.216L20.1892 28.67L19.694 26.8078C19.3853 25.6468 19.2573 24.9456 19.354 24.9456C19.4395 24.9456 20.3415 25.168 21.3588 25.4396L23.2082 25.9336L24.7179 25.5064C26.6109 24.9708 29.747 24.3167 31.3932 24.1142C32.0842 24.0291 32.8381 23.9334 33.0685 23.9014C33.8471 23.7934 37.9441 23.9718 39.5602 24.1841ZM27.909 26.8241C27.1209 27.6175 26.5035 29.4828 26.6159 30.731C26.7005 31.6698 27.0356 32.4358 27.8214 33.487C28.7035 34.6669 28.7363 35.5709 27.9573 37.2286C27.4763 38.2522 27.473 38.2963 27.8433 38.7702C28.4212 39.5098 29.1836 39.0767 29.8811 37.6127C30.1811 36.9829 30.2702 36.5607 30.3178 35.5425C30.3874 34.0533 30.1789 33.4228 29.1899 32.1323C28.6249 31.395 28.601 31.3234 28.6013 30.3684C28.6016 29.5439 28.6804 29.1975 29.06 28.3539C29.5487 27.2681 29.529 26.9441 28.956 26.6354C28.5429 26.4129 28.2683 26.4624 27.909 26.8241ZM33.7761 26.9635C32.7627 28.0453 32.7522 29.7316 33.7507 31.0517C34.2659 31.7328 34.3127 32.0566 33.9871 32.6855C33.4636 33.6967 33.7266 34.5026 34.5803 34.5026C35.3102 34.5026 36.07 33.2845 36.07 32.1145C36.07 31.3151 35.8365 30.6527 35.3093 29.9568C34.8843 29.3958 34.8574 28.8457 35.2159 28.0397C35.5145 27.3682 35.4669 26.9962 35.0443 26.6981C34.5921 26.3793 34.2579 26.4493 33.7761 26.9635ZM58.1593 26.7104C57.7344 27.0099 57.7636 27.4874 58.2831 28.7317C58.8873 30.1798 58.8221 30.9712 58.0067 32.0857C57.1993 33.1892 56.8851 33.9106 56.7827 34.8957C56.6777 35.9075 57.0493 37.3013 57.6979 38.3284C58.1837 39.0975 58.648 39.2904 59.1762 38.942C59.6372 38.638 59.6305 38.0771 59.1545 37.1332C58.909 36.6459 58.7629 36.0927 58.7194 35.4843C58.6549 34.5844 58.6648 34.5525 59.29 33.6331C60.3809 32.0292 60.5015 31.7045 60.5015 30.3747C60.5015 28.967 60.1641 27.9264 59.4259 27.0583C58.9039 26.4444 58.6394 26.3717 58.1593 26.7104ZM44.0748 32.0845C45.0417 31.6255 45.1201 32.1323 44.2304 33.0899L43.5953 33.7733L42.9739 33.1045C42.0814 32.144 42.1276 31.6878 43.0785 32.0708C43.574 32.2703 43.6805 32.2719 44.0748 32.0845ZM59.1752 53.195C58.8464 53.3372 32.0144 53.6807 29.4387 53.2006C32.5101 53.1933 34.8938 53.097 43.6089 53.089C52.5534 53.0806 59.3328 53.1268 59.1752 53.195Z" fill="#FCFCFC"/>
</svg>
