<svg width="80" height="80" viewBox="0 0 80 80" fill="none" xmlns="http://www.w3.org/2000/svg">
<rect x="0.5" y="0.5" width="79" height="79" rx="39.5" stroke="#FCFCFC"/>
<path fill-rule="evenodd" clip-rule="evenodd" d="M37.8332 17.1069C35.3363 17.6661 33.3054 19.2344 32.1303 21.511C31.9247 21.9092 31.656 22.5675 31.5332 22.9737L31.31 23.7123L31.3028 27.1416C31.2959 30.4601 31.3017 30.5921 31.4817 31.2319C31.9187 32.7841 33.0389 34.5615 34.133 35.4384L34.6388 35.8438V37.9279C34.6388 39.4993 34.6134 40.0309 34.5356 40.0886C34.4789 40.1307 33.6333 40.324 32.6567 40.5183C28.6139 41.3223 26.0657 41.9145 25.3882 42.2075C23.8693 42.8646 22.3362 44.0897 21.5203 45.2986C21.1086 45.9084 20.5919 46.9319 20.403 47.5118C20.1422 48.3118 18.2861 58.1395 18.2861 58.72C18.2861 58.7515 18.3823 58.8916 18.5 59.0315L18.7138 59.2857H39.4716H60.2296L60.4007 59.068C60.5023 58.9388 60.5719 58.7287 60.5718 58.5515C60.5718 58.219 59.6433 53.0692 59.0047 49.8594C58.3967 46.803 57.9435 45.8298 56.405 44.2765C55.5265 43.3897 54.7624 42.8436 53.7363 42.3693C53.0728 42.0626 50.5974 41.4551 46.573 40.6114C45.4374 40.3734 44.4653 40.1668 44.4126 40.1523C44.2681 40.1124 44.2011 39.0951 44.2325 37.4178L44.2605 35.9188L45.0541 35.1454C46.2257 34.0035 46.933 32.8347 47.3732 31.313C47.5596 30.6693 47.5641 30.5682 47.5634 27.1002L47.5629 23.547L47.3278 22.8447C46.8504 21.4182 45.9014 19.9303 44.8999 19.038C44.0159 18.2504 42.7801 17.5849 41.4938 17.2037C40.7505 16.9834 38.6343 16.9275 37.8332 17.1069ZM40.2946 18.4669C41.2349 18.5584 41.7216 18.6981 42.4848 19.0956C43.7699 19.765 44.8439 20.8315 45.4608 22.0508C45.8153 22.7516 46.0864 23.5656 45.9956 23.6564C45.9204 23.7317 33.1498 23.7282 32.9663 23.6529C32.8329 23.5981 32.8409 23.5411 33.0696 22.914C33.4407 21.8964 33.9178 21.1551 34.7142 20.3584C35.4993 19.5729 36.2649 19.0754 37.1819 18.7547C38.2216 18.3913 38.8859 18.3299 40.2946 18.4669ZM45.698 25.2344C45.8792 25.3492 44.6307 26.5564 44.0434 26.8343C43.2796 27.1958 42.7088 27.2378 38.9585 27.2092L35.506 27.1829L35.0105 26.952C34.3718 26.6544 32.981 25.3195 33.2137 25.2274C33.4303 25.1416 45.5623 25.1485 45.698 25.2344ZM34.5221 28.3767C34.976 28.5466 35.0859 28.5499 39.5408 28.5276L44.0953 28.505L44.5496 28.2727C44.7994 28.145 45.2767 27.7731 45.6102 27.4464L46.2166 26.8523L46.1757 28.6703C46.1291 30.7431 46.0675 31.0645 45.4945 32.2235C44.6696 33.8919 43.246 35.1179 41.4525 35.7044C40.5578 35.997 39.0039 36.0707 38.0775 35.8644C35.875 35.3742 34.034 33.8341 33.1709 31.7597C32.8377 30.959 32.7582 30.4041 32.6999 28.4729L32.6515 26.8708L33.3548 27.5369C33.8766 28.031 34.1779 28.2478 34.5221 28.3767ZM37.9004 37.2801C39.1415 37.5574 41.028 37.4074 42.2939 36.9307L42.8152 36.7344V39.0397V41.345L42.2164 41.8162C41.0973 42.6971 40.0771 43.0015 38.7886 42.8391C37.9897 42.7384 37.4014 42.445 36.6663 41.7806L36.0576 41.2304L36.0502 38.9875L36.0429 36.7445L36.6822 36.9477C37.0339 37.0594 37.582 37.209 37.9004 37.2801ZM36.8706 43.6913C37.6335 44.0561 38.5356 44.247 39.4875 44.2451C41.1891 44.2418 42.2601 43.7687 43.7401 42.3666C44.1401 41.9877 44.5319 41.6849 44.6223 41.6849C44.7116 41.6849 44.9778 41.7296 45.2138 41.784L45.6427 41.8831L45.6056 42.7963C45.5762 43.5183 45.5273 43.8045 45.3719 44.1639C45.2009 44.5596 42.6942 48.0075 42.2007 48.5258L42.0209 48.7147L41.6309 48.4168C40.3118 47.409 38.7525 47.3817 37.4466 48.3436C37.017 48.66 36.9126 48.705 36.8223 48.6129C36.7626 48.552 36.0424 47.6115 35.2218 46.523C33.5023 44.2421 33.4093 44.0556 33.3404 42.7525L33.2941 41.8782L33.8632 41.7533L34.4324 41.6286L35.3427 42.5122C36.0662 43.2146 36.3796 43.4564 36.8706 43.6913ZM31.9194 43.1376C31.9597 43.9747 32.0013 44.1991 32.1961 44.6324C32.3298 44.9295 33.1747 46.1472 34.2225 47.5529L36.0195 49.9637L36.0633 50.9801C36.1054 51.9536 36.1202 52.0211 36.4139 52.5803C36.7913 53.2989 37.3384 53.8242 38.0813 54.1811C38.391 54.3299 38.6718 54.4889 38.7051 54.5343C38.7385 54.5798 38.7663 54.9609 38.7671 55.3813C38.769 56.5583 38.8224 56.5854 41.0556 56.5439C42.4353 56.5182 42.4777 56.5121 42.693 56.3109L42.914 56.1044L42.8866 53.0469L42.8592 49.9895L44.2392 48.1508C45.7795 46.0985 46.5325 45.0085 46.7422 44.5278C46.8328 44.3201 46.9022 43.8611 46.9372 43.2385C46.967 42.7068 47.0088 42.2548 47.03 42.2343C47.0753 42.1901 50.6451 42.9699 51.9 43.298C53.4047 43.6915 54.3733 44.2308 55.3744 45.2325C56.3367 46.1953 57.0101 47.3772 57.3334 48.6706C57.6064 49.7632 58.5473 55.0588 58.4804 55.1258C58.4462 55.1599 56.608 55.1895 54.3952 55.1916L50.3721 55.1954L50.3308 51.986L50.2895 48.7766L50.0946 48.6187C49.7839 48.3671 49.2942 48.4434 49.0327 48.7842C48.9565 48.8835 48.9314 50.0134 48.9295 53.4398L48.9268 57.9642L39.4497 57.9433L29.9725 57.9223L29.9312 53.3081L29.89 48.694L29.695 48.5361C29.3843 48.2845 28.8946 48.3607 28.6331 48.7015C28.5581 48.7992 28.5318 49.6417 28.5299 52.0055L28.5272 55.1784L24.477 55.1352C22.2493 55.1115 20.4082 55.0738 20.3857 55.0512C20.3435 55.0091 21.2281 50.0575 21.5068 48.7755C21.9889 46.5571 23.7248 44.4716 25.8102 43.6051C26.1463 43.4655 26.9043 43.2356 27.4949 43.0943C29.6266 42.5841 31.7087 42.1195 31.7895 42.1359C31.8358 42.1453 31.8929 42.5862 31.9194 43.1376ZM40.1209 49.2236C40.5688 49.3579 41.1994 49.9729 41.3298 50.4027C41.3924 50.6088 41.4457 51.5668 41.4716 52.9473L41.513 55.1613L40.8633 55.1371L40.2136 55.1128L40.1723 54.3648C40.1183 53.3866 40.0107 53.2158 39.3693 53.0899C38.6983 52.9582 38.4438 52.8452 38.0822 52.5183C37.6313 52.1107 37.5006 51.8138 37.4966 51.1877C37.4925 50.5335 37.6292 50.1112 37.9711 49.7215C38.454 49.1713 39.2958 48.9763 40.1209 49.2236ZM38.9711 50.5642C38.6869 50.8485 38.7017 51.2164 39.0097 51.5246C39.5936 52.1086 40.4634 51.4757 40.0763 50.7484C39.8439 50.312 39.3118 50.2232 38.9711 50.5642ZM28.5272 57.2315V57.9042L24.2866 57.864C21.9543 57.8419 20.0081 57.8004 19.9619 57.7718C19.905 57.7366 19.9075 57.5528 19.9697 57.205C20.0488 56.763 20.091 56.6821 20.2683 56.6328C20.3818 56.6011 22.2866 56.5716 24.501 56.5671L28.5272 56.5588V57.2315ZM58.9025 57.1656C58.9643 57.4766 58.9927 57.7533 58.9656 57.7805C58.9384 57.8077 56.9937 57.8321 54.6442 57.8348L50.3721 57.8396L50.348 57.1985L50.3239 56.5573L54.5569 56.5787L58.7901 56.6001L58.9025 57.1656Z" fill="#FCFCFC"/>
</svg>
