<svg width="80" height="80" viewBox="0 0 80 80" fill="none" xmlns="http://www.w3.org/2000/svg">
<rect x="0.5" y="0.5" width="79" height="79" rx="39.5" stroke="#FCFCFC"/>
<path fill-rule="evenodd" clip-rule="evenodd" d="M31.0755 22.0597C30.837 22.2646 30.8324 22.2865 30.8042 23.3561L30.7756 24.4441H28.4536H26.4515C26.2451 24.4441 26.0456 24.5181 25.8891 24.6527C25.735 24.7852 25.646 24.978 25.645 25.1812L25.6033 33.9127L25.5601 42.9642L24.9051 43.2396C23.1528 43.9765 21.672 45.4617 20.9423 47.2143C20.5285 48.2081 20.3887 49.0843 20.4383 50.3717C20.4858 51.6048 20.617 52.0865 21.262 53.3966C21.6108 54.1049 21.7852 54.3362 22.5327 55.0818C23.0093 55.5572 23.6257 56.079 23.9025 56.2414C24.6751 56.6946 25.8761 57.112 26.6702 57.2033C27.0808 57.2505 33.2209 57.2846 41.3738 57.285L55.3724 57.2857L55.6148 57.0535L55.8573 56.8212V40.8853V25.3067C55.8573 25.0779 55.7664 24.8585 55.6046 24.6967C55.4428 24.535 55.2234 24.4441 54.9947 24.4441H53.0114H50.6709V23.4891C50.6709 22.4791 50.5705 22.1154 50.2434 21.9404C49.8705 21.7408 49.3094 21.9347 49.1318 22.3243C49.0718 22.4559 49.0285 22.9477 49.0285 23.4975V24.4441H40.7303H32.4321V23.5281C32.4321 22.5077 32.3118 22.1153 31.9484 21.9498C31.6143 21.7975 31.3405 21.832 31.0755 22.0597ZM30.7897 27.0887V27.5857C30.7897 27.9175 30.8569 28.2694 31.1269 28.4623C31.3198 28.6001 31.5355 28.6725 31.6775 28.6441C31.8311 28.6134 32.0539 28.4912 32.1728 28.3724C32.3749 28.1703 32.3908 28.0899 32.4195 27.1213L32.4503 26.0862H40.7394H49.0285V27.0787C49.0285 28.0497 49.0339 28.0773 49.2769 28.3492C49.6264 28.7401 50.0731 28.7401 50.4225 28.3492C50.6655 28.0773 50.6709 28.0497 50.6709 27.0787V26.0862H52.4861H54.3014V29.1543V32.2224H40.7303H27.1592V29.1543V26.0862H28.9745H30.7897V27.0887ZM54.3014 44.7972V55.73H43.3994C34.6884 55.73 32.5151 55.7083 32.5854 55.622C33.7561 54.1866 34.4688 52.9413 34.774 51.7977C35.0566 50.7389 35.0386 49.1213 34.7326 48.099C33.9003 45.3184 31.7452 43.3309 28.9885 42.8016C28.6396 42.7346 28.1728 42.6793 27.9512 42.6786C27.7296 42.678 27.4607 42.654 27.3537 42.6254L27.1592 42.5733V38.2188V33.8645H40.7303H54.3014V44.7972ZM35.0564 37.6205C34.7631 37.8259 34.6378 38.2222 34.7673 38.5349C34.9935 39.0807 34.5199 39.05 42.6896 39.05H50.1426L50.3832 38.8431C50.726 38.5482 50.726 37.9961 50.3832 37.7012L50.1426 37.4943H42.6896C36.295 37.4943 35.211 37.5122 35.0564 37.6205ZM37.5914 42.9223C37.2546 43.2737 37.2691 43.7364 37.6276 44.0712L37.8961 44.3219H43.9896H50.0831L50.377 44.0281C50.7793 43.6258 50.7496 43.2025 50.2934 42.833C50.1226 42.6947 49.6559 42.6835 43.9664 42.6817L37.8237 42.6798L37.5914 42.9223ZM28.8701 44.4566C30.7853 44.8438 32.3289 46.2005 33.0516 48.1319C33.3048 48.8085 33.324 48.9376 33.3265 49.9828C33.3289 50.9852 33.3045 51.1743 33.1003 51.7377C32.7514 52.7002 32.3778 53.2896 31.6601 54.0097C30.5751 55.0982 29.2458 55.6436 27.6779 55.6436C26.6677 55.6436 26.0379 55.4931 25.1124 55.0307C23.8725 54.4111 22.924 53.3596 22.3517 51.9705C22.1126 51.3902 22.1025 51.3093 22.1025 49.9828C22.1025 48.6043 22.1035 48.5979 22.3933 47.9259C23.5491 45.2466 26.0778 43.8921 28.8701 44.4566ZM30.2516 47.6029C30.1329 47.6961 29.5402 48.5323 28.9345 49.461C28.3287 50.3896 27.8078 51.1475 27.777 51.1452C27.7463 51.1428 27.2738 50.4944 26.727 49.7043C26.1803 48.9143 25.5881 48.1137 25.4111 47.9253C25.1202 47.6157 25.0588 47.5877 24.7737 47.6339C24.3698 47.6994 24.1514 47.8998 24.0822 48.2683C24.0178 48.6121 23.9691 48.53 25.743 51.0651C27.2089 53.1598 27.3844 53.373 27.7056 53.4479C28.1581 53.5535 28.6539 52.914 31.0219 49.1701C31.5602 48.3192 31.597 48.0543 31.2286 47.6858C30.9283 47.3856 30.5669 47.3549 30.2516 47.6029ZM40.2208 48.1161C39.8543 48.4584 39.8482 48.898 40.205 49.2548L40.4577 49.5074H45.296H50.1344L50.4026 49.2019C50.5501 49.0339 50.6709 48.8019 50.6709 48.6864C50.6709 48.5708 50.5501 48.3389 50.4026 48.1709L50.1344 47.8653H45.3118H40.4893L40.2208 48.1161Z" fill="#FCFCFC"/>
</svg>
