<svg width="80" height="80" viewBox="0 0 80 80" fill="none" xmlns="http://www.w3.org/2000/svg">
<rect x="0.5" y="0.5" width="79" height="79" rx="39.5" stroke="#FCFCFC"/>
<path fill-rule="evenodd" clip-rule="evenodd" d="M34.5606 16.117C33.9039 16.3972 33.3966 16.865 32.3849 18.1228C31.276 19.5015 30.8994 19.7463 29.6256 19.9157C27.5511 20.1916 26.7364 20.4838 26.0852 21.1859C25.4318 21.8904 25.1937 22.5941 24.9248 24.6165C24.7549 25.8934 24.5117 26.2661 23.1152 27.3893C21.3506 28.8085 21.0552 29.2738 21.0583 30.6278C21.0603 31.5192 21.1398 31.8709 21.5923 32.9891C22.279 34.6865 22.2728 35.1299 21.5359 37.0634C21.0333 38.3821 20.9653 38.6901 21.0126 39.4331C21.085 40.5712 21.486 41.155 23.0614 42.4165C24.4186 43.5033 24.7776 44.0442 24.9281 45.2291C25.0935 46.5304 25.3062 47.4421 25.562 47.9458C25.8357 48.4846 26.8641 49.4474 27.1662 49.4474C27.2666 49.4474 27.3487 49.545 27.3487 49.6642C27.3487 49.7834 26.6015 51.9067 25.6881 54.3825C24.7749 56.8581 23.9904 59.116 23.945 59.3999C23.8737 59.8461 23.9128 59.9556 24.234 60.2082C24.7023 60.5765 24.7912 60.5601 28.0346 59.5094C29.6768 58.9775 30.6549 58.7251 30.7765 58.8019C30.8803 58.8676 31.6369 60.0415 32.4576 61.4107C34.012 64.0038 34.244 64.2468 34.9874 64.0602C35.4147 63.9529 35.4286 63.9216 37.6444 58.0382C39.4211 53.3206 39.7141 52.6284 39.9345 52.6284C40.1563 52.6284 40.4625 53.3518 42.2144 58.0148C44.4074 63.851 44.452 63.9525 44.8815 64.0602C45.6354 64.2494 45.8572 64.0129 47.4588 61.3127C48.3029 59.8895 49.0704 58.7225 49.1648 58.7194C49.259 58.7163 50.4726 59.0782 51.8617 59.5237C55.0949 60.5606 55.1697 60.5741 55.6349 60.2082C56.1239 59.8237 56.0753 59.552 54.9981 56.6392C54.5338 55.3841 53.7617 53.2816 53.2824 51.9669L52.4109 49.5765L52.9168 49.3183C54.0688 48.7307 54.5939 47.7575 54.8703 45.6982C55.0978 44.0033 55.3669 43.5469 56.8118 42.4056C57.4896 41.8701 58.2172 41.1704 58.4287 40.8506C58.7676 40.3379 58.8118 40.1453 58.8023 39.2223C58.7934 38.3498 58.7043 37.9567 58.268 36.8616C57.5975 35.1791 57.5985 34.6865 58.2749 32.9891C58.714 31.8871 58.7996 31.5062 58.8057 30.6266C58.8124 29.6811 58.7723 29.519 58.3981 28.9774C58.1699 28.647 57.4158 27.9246 56.7223 27.3721C55.2856 26.2274 55.1173 25.9333 54.8715 24.1388C54.4775 21.2606 53.5952 20.3854 50.6973 19.9977C48.9624 19.7656 48.6295 19.5708 47.4614 18.1035C46.8944 17.3912 46.1714 16.637 45.8549 16.4276C45.3528 16.0953 45.1456 16.047 44.232 16.0492C43.3406 16.0512 42.9889 16.1307 41.8707 16.5832C40.1965 17.2605 39.7036 17.2619 37.9982 16.5939C36.6075 16.0491 35.1829 15.8516 34.5606 16.117ZM37.4675 18.5484C39.2505 19.2498 40.2218 19.3131 41.5958 18.8175C44.3555 17.8223 44.1861 17.8655 44.6222 18.0461C44.8466 18.139 45.3252 18.5986 45.6856 19.0672C46.6538 20.326 47.4075 21.0844 47.9893 21.385C48.2738 21.5321 49.2106 21.7727 50.0709 21.9197C51.8838 22.2297 52.3151 22.3707 52.4974 22.7133C52.5701 22.8501 52.7286 23.5863 52.8496 24.3492C53.2532 26.895 53.4673 27.2392 56.0142 29.4363C56.5644 29.911 56.9459 30.3494 56.9459 30.5069C56.9459 30.6535 56.684 31.4433 56.3639 32.2617C55.8413 33.5983 55.7822 33.8694 55.7842 34.9254C55.786 35.9611 55.8488 36.2569 56.3115 37.4129C56.6004 38.1344 56.8428 38.9349 56.8501 39.1919C56.8642 39.6906 56.7172 39.8556 54.7604 41.5356C53.5465 42.578 53.2694 43.126 52.9224 45.17C52.7619 46.1153 52.5709 47.0006 52.4979 47.1374C52.3201 47.4703 51.9015 47.6141 50.4069 47.8559C47.9673 48.2503 47.6644 48.4412 45.4527 50.9762C44.7342 51.7996 44.6389 51.8626 44.1388 51.8428C43.8421 51.831 43.0394 51.5904 42.3548 51.3078C40.63 50.5962 39.6577 50.5319 38.2731 51.0384C35.5308 52.0414 35.6671 52.0106 35.169 51.7424C34.9215 51.6091 34.4769 51.1781 34.1811 50.7849C32.6185 48.7076 31.9035 48.2451 29.7682 47.9307C28.2466 47.7066 27.6298 47.5085 27.4122 47.1739C27.3103 47.0171 27.1284 46.2663 27.0079 45.5057C26.6038 42.9515 26.276 42.388 24.3106 40.8676C22.917 39.7894 22.7927 39.5071 23.2044 38.3538C24.2145 35.5237 24.201 35.5773 24.1322 34.6487C24.0882 34.0558 23.8933 33.326 23.5599 32.505C23.2817 31.8204 23.0191 31.0412 22.9761 30.7736C22.8912 30.2455 22.9658 30.1603 25.2426 28.1855C26.2975 27.2706 26.6196 26.6041 26.9521 24.6493C27.097 23.7973 27.2502 22.9898 27.2926 22.8545C27.4266 22.4274 27.9362 22.2172 29.3569 22.003C31.8445 21.6279 32.5318 21.2268 33.9965 19.2951C35.1858 17.7266 35.3101 17.6998 37.4675 18.5484ZM37.665 21.7355C33.276 22.5395 29.3218 25.6853 27.6488 29.7039C26.2146 33.149 26.246 37.0634 27.734 40.3452C29.4493 44.1283 32.7671 46.8887 36.8551 47.9343C38.4749 48.3487 41.3974 48.3137 43.1915 47.8585C47.8842 46.6681 51.6461 42.9051 52.8816 38.1657C53.3655 36.3085 53.3962 33.7832 52.9567 31.9785C52.3575 29.5193 51.2692 27.5053 49.5599 25.6934C47.5043 23.5142 44.3273 21.9163 41.6633 21.7213C39.206 21.5415 38.7143 21.5433 37.665 21.7355ZM42.0121 23.7796C44.1396 24.1593 46.0421 25.1489 47.7124 26.7445C50.2596 29.1781 51.4346 32.1598 51.2351 35.6838C51.0842 38.3478 50.0488 40.6795 48.1206 42.6978C45.673 45.2596 42.7151 46.4264 39.176 46.226C36.3663 46.0668 33.8817 44.9053 31.8541 42.8033C29.8179 40.6922 28.7883 38.4109 28.6329 35.6653C28.3101 29.9652 32.0541 25.0204 37.6155 23.8021C38.7409 23.5555 40.7 23.5455 42.0121 23.7796ZM39.324 27.5016C39.1474 27.6782 38.6525 28.5029 38.2245 29.3341C37.7965 30.1653 37.3959 30.9227 37.3343 31.0171C37.2725 31.1122 36.4106 31.3134 35.4073 31.4672C34.409 31.6203 33.4789 31.7857 33.3404 31.8351C32.8766 32.0001 32.6043 32.3368 32.6043 32.7455C32.6043 33.0761 32.8859 33.4348 34.133 34.6931L35.6617 36.2357L35.3005 38.3812L34.9394 40.5267L35.3716 40.9134C35.9011 41.387 35.8877 41.3903 38.1597 40.2101L39.9116 39.2999L41.8624 40.2956C43.7374 41.2525 43.8283 41.2835 44.2005 41.091C44.9492 40.7037 44.9534 40.6722 44.562 38.3451L44.2017 36.2026L45.7332 34.6833C47.3584 33.0708 47.5133 32.7693 47.0226 32.1718C46.7805 31.877 46.288 31.7565 43.5594 31.324L42.551 31.1643L41.7812 29.6218C41.3579 28.7734 40.8593 27.8769 40.6734 27.6298C40.2653 27.0872 39.7841 27.0414 39.324 27.5016ZM40.4956 31.4846C41.2158 32.9746 41.338 33.0681 42.8286 33.2718L44.1041 33.446L43.1257 34.431C42.0412 35.5227 42.039 35.5302 42.3062 37.1486C42.3938 37.678 42.4338 38.1426 42.3953 38.181C42.3569 38.2195 41.7875 37.9928 41.13 37.6773L39.9345 37.1038L38.7389 37.6773C38.0814 37.9928 37.512 38.2195 37.4736 38.181C37.4351 38.1426 37.4751 37.678 37.5627 37.1486C37.8249 35.5603 37.823 35.5535 36.7496 34.4467L35.7777 33.4444L37.0466 33.271C38.5302 33.0682 38.6536 32.9735 39.3733 31.4846C39.6353 30.9429 39.8878 30.4996 39.9345 30.4996C39.9811 30.4996 40.2336 30.9429 40.4956 31.4846ZM30.9142 50.3242C31.3102 50.5241 31.8139 51.0103 32.4356 51.7929C33.6343 53.3016 34.2451 53.7342 35.3144 53.8312C35.7636 53.8719 36.3607 53.8419 36.6411 53.7644C37.1296 53.6296 37.1465 53.6362 37.0383 53.9212C36.9762 54.0849 36.3811 55.6814 35.716 57.469C35.0509 59.2566 34.4895 60.7387 34.4686 60.7626C34.4478 60.7865 34.0091 60.1019 33.4939 59.2413C31.9236 56.6183 31.8292 56.5009 31.2923 56.5009C31.0345 56.5009 29.8862 56.8048 28.7403 57.1762C27.5946 57.5477 26.6572 57.7939 26.6572 57.7232C26.6572 57.6011 28.9724 51.2582 29.364 50.3077C29.5283 49.9092 29.5974 49.8646 29.9365 49.9399C30.1487 49.987 30.5886 50.1599 30.9142 50.3242ZM51.8726 53.9539C52.5238 55.7097 53.0968 57.3068 53.146 57.5028L53.2355 57.8593L51.1405 57.1801C49.9881 56.8066 48.8344 56.5009 48.5766 56.5009C48.035 56.5009 47.8954 56.6745 46.3723 59.2436C45.8612 60.1057 45.4254 60.7903 45.404 60.765C45.3524 60.7044 43.2886 55.2492 42.9723 54.3373L42.7254 53.6257L43.2261 53.7638C43.5015 53.8399 44.0875 53.876 44.5282 53.8442C45.5832 53.7679 46.2176 53.3181 47.4721 51.7575C48.593 50.3628 48.7811 50.2123 49.6186 50.0408C50.2206 49.9176 50.2445 49.926 50.4635 50.3376C50.5872 50.5707 51.2214 52.198 51.8726 53.9539Z" fill="#FCFCFC"/>
</svg>
