<svg width="80" height="80" viewBox="0 0 80 80" fill="none" xmlns="http://www.w3.org/2000/svg">
<rect x="0.5" y="0.5" width="79" height="79" rx="39.5" stroke="#FCFCFC"/>
<path fill-rule="evenodd" clip-rule="evenodd" d="M31.0609 19.5022C30.9559 19.5433 30.8271 19.6547 30.7747 19.7497C30.7223 19.8447 29.8922 23.3711 28.93 27.5862C27.9678 31.8014 27.1593 35.3169 27.1334 35.3987C27.1075 35.4805 27.0312 35.5473 26.964 35.5473C26.8967 35.5473 25.6105 36.3451 24.1058 37.3204L21.3699 39.0934L19.6865 40.7424C17.6754 42.7124 17.7038 42.6456 18.5259 43.4766L19.0487 44.0052L20.022 44.938L21.3293 46.2049L22.6366 47.4719L23.6076 48.4188L24.9148 49.6857L26.2221 50.9527L27.1931 51.8996L28.5003 53.1665L30.7835 55.3838L32.0619 56.6248L33.3403 57.8658L34.4789 58.8093C34.4789 58.8093 34.8457 59.0339 35.2172 59.3085C35.5888 59.583 36.1866 59.9902 36.5457 60.2133C36.9049 60.4363 37.2258 60.6388 37.2258 60.6388L38.5488 61.2713C38.5488 61.2713 38.8372 61.3458 39.1098 61.4368C40.1371 61.7799 41.3177 61.8073 42.0523 61.5052C42.2207 61.436 42.7392 60.997 43.2046 60.5298C44.1889 59.5416 44.2785 59.3376 44.2199 58.215C44.1883 57.6107 44.1312 57.3872 43.8686 56.8403C43.2732 55.6004 42.2363 54.3345 40.8847 53.1975C40.183 52.6071 40.1271 52.5351 39.9575 52.0018C39.6815 51.1339 39.087 49.3432 39.087 49.3432L38.4232 49.5314L37.7594 49.7196L38.909 53.273L39.8029 54.0548C40.7376 54.8723 41.6284 55.7998 42.0636 56.4087C42.4139 56.8988 42.8392 57.7896 42.8393 58.0334C42.8394 58.2185 42.8141 58.2296 42.5114 58.1778C41.2059 57.9547 39.4783 57.0428 37.5923 55.5814C37.0601 55.1691 34.649 52.9137 31.858 50.2175C26.6497 45.1861 33.2333 51.4818 27.9726 46.502C27.2553 46.4082 26.8485 46.4023 26.1312 46.3085C30.3001 50.844 26.5346 46.9278 30.9676 51.2208C33.9235 54.0833 36.156 56.174 36.7177 56.6058C38.5512 58.0152 40.2353 58.9594 41.5954 59.3406L42.3106 59.5412L41.8741 59.9585L41.4375 60.376L40.8048 60.3686C40.021 60.3595 39.0978 60.0635 37.9858 59.4648C35.7774 58.2758 35.189 57.7597 27.0106 49.839L19.6209 42.6822L20.254 42.0665L20.8873 41.4507L22.9693 43.4655C25.1001 45.5276 23.8153 44.4439 26.1312 46.3085C26.8485 46.4023 27.2553 46.4082 27.9726 46.502C26.8648 45.4109 25.0332 43.6157 23.9199 42.5299C22.2026 40.8552 21.9096 40.5335 21.9871 40.4075C22.0374 40.3259 23.1193 39.5803 24.3915 38.7505L26.7045 37.2421L27.0654 37.9963C28.1539 40.2709 29.7388 42.2071 31.0216 42.8294C32.1365 43.3702 33.3756 43.3773 34.7721 42.8509C35.1397 42.7123 35.4454 42.6074 35.4514 42.6175C35.5221 42.7379 36.0881 44.5918 36.0619 44.6172C36.0423 44.6363 35.8402 44.6855 35.6128 44.7268C34.873 44.8609 34.5938 45.1819 34.7872 45.6757C34.9257 46.0293 35.2212 46.119 35.9323 46.0236C36.5109 45.946 36.6303 45.9758 36.6303 46.1979C36.6303 46.2113 36.3937 46.2675 36.1046 46.3227C35.717 46.3967 35.5431 46.4762 35.4427 46.6249C35.2439 46.9194 35.315 47.3397 35.5982 47.544C35.8147 47.7002 35.8829 47.7063 36.4257 47.6191C36.8731 47.5471 37.0327 47.548 37.0804 47.623C37.1819 47.7823 37.0986 47.8316 36.6242 47.8927C35.9096 47.9847 35.6078 48.3832 35.8546 48.9089C35.9985 49.2156 36.34 49.3272 36.8111 49.2218C37.5394 49.0588 37.7594 49.7196 37.7594 49.7196L38.4232 49.5314L39.087 49.3432C39.087 49.3432 38.9279 48.8318 39.0825 48.7749C39.698 48.5482 39.4116 47.5179 38.7331 47.5179C38.4088 47.5179 38.3904 47.3724 38.6852 47.139C39.2075 46.7255 38.9436 45.9836 38.2676 45.965C38.0157 45.958 37.9421 45.9214 37.9421 45.8031C37.9421 45.719 38.0011 45.6501 38.0733 45.6501C38.304 45.6501 38.5542 45.3266 38.5542 45.0281C38.5542 44.6385 38.2543 44.377 37.8053 44.3754L37.4611 44.3742L37.0102 42.9692L36.5592 41.5642L38.2025 37.7591C40.1369 33.2798 39.9957 33.3941 39.9957 33.3941L38.9147 32.8942C38.9147 32.8942 38.0474 34.636 37.0005 37.0754L35.2699 41.1081L34.6165 41.4269C32.6087 42.4068 31.2047 41.8808 29.5436 39.5264C28.9141 38.6341 28.1532 37.2048 28.2019 37.006C28.2211 36.9275 28.727 34.7091 29.3261 32.0763C29.9253 29.4435 30.4312 27.2741 30.4505 27.2555C30.4697 27.2368 30.8251 27.3171 31.2404 27.4338C32.671 27.8363 34.5831 28.262 37.4131 28.808C38.9739 29.1092 40.263 29.3672 40.2777 29.3814C40.2923 29.3957 40.127 29.8181 39.9103 30.3203C39.6936 30.8224 38.9147 32.8942 38.9147 32.8942L39.9957 33.3941C39.9957 33.3941 45.7253 20.4001 45.7253 20.0845C45.7253 19.5406 44.9792 19.2418 44.5983 19.6332C44.5096 19.7243 43.9718 20.8875 43.4031 22.2183C42.8344 23.5491 42.3594 24.6512 42.3477 24.6675C42.3273 24.6961 31.7452 22.2256 31.636 22.1668C31.6066 22.1511 31.6747 21.7455 31.7871 21.2656C32.0612 20.0962 32.0575 19.816 31.7649 19.5927C31.5178 19.404 31.363 19.384 31.0609 19.5022ZM36.6303 24.7316C39.2998 25.3583 41.5497 25.8992 41.6302 25.9337C41.7593 25.9889 41.7247 26.1162 41.3371 27.015C41.0954 27.5754 40.8866 28.0453 40.873 28.0593C40.8346 28.0989 36.5055 27.2764 34.7501 26.8958C32.9361 26.5026 30.9397 25.9817 30.827 25.8723C30.7822 25.8288 30.8481 25.3572 30.984 24.7506C31.2906 23.3812 31.2535 23.4629 31.537 23.533C31.6689 23.5656 33.9608 24.1049 36.6303 24.7316ZM49.0743 31.5537C46.7028 31.9589 44.6662 32.9627 42.9262 34.584C41.2208 36.173 40.1127 38.0907 39.5488 40.4289C39.2967 41.4744 39.3185 44.2037 39.5877 45.2981C40.1166 47.4482 41.1784 49.3066 42.7492 50.8315C44.4496 52.4823 46.6647 53.6091 49.0047 54.0135C50.0747 54.1984 51.92 54.198 53.0275 54.0125C56.6998 53.3975 59.8602 51.1273 61.5288 47.9058C63.1488 44.7781 63.1893 41.0065 61.6367 37.8678C60.2292 35.0222 57.6147 32.8334 54.5142 31.905C52.7761 31.3846 50.808 31.2574 49.0743 31.5537ZM52.5465 32.835C53.7252 33.0178 53.7112 33.0092 53.9362 33.6875C54.0466 34.0202 54.3462 34.6977 54.6021 35.193L55.0672 36.0935L54.5361 36.8179C54.2439 37.2164 53.9159 37.6602 53.807 37.8043L53.6091 38.0662L52.9248 37.9573C51.9618 37.8042 50.0315 37.812 49.0667 37.9729L48.2669 38.1063L48.0123 37.8243C47.8723 37.6692 47.5805 37.3349 47.3638 37.0813L46.9698 36.6202L47.2643 35.9524C47.6 35.1909 47.9652 34.0654 48.052 33.5243C48.0983 33.2363 48.1589 33.1392 48.3323 33.0752C49.098 32.7926 51.4196 32.6603 52.5465 32.835ZM46.3135 34.5787C46.1553 35.0414 45.9284 35.591 45.8093 35.8C45.6008 36.1664 45.5691 36.1855 44.9376 36.3288C44.3404 36.4643 42.9185 36.6548 42.8579 36.6076C42.7943 36.5579 44.4264 35.0233 44.8945 34.6924C45.3791 34.35 46.5265 33.6895 46.5786 33.723C46.5911 33.731 46.4718 34.1161 46.3135 34.5787ZM57.1022 34.6353C57.3713 34.8334 57.7845 35.1576 58.0204 35.3557L58.4496 35.716L58.0997 35.7171C57.9073 35.7177 57.4407 35.6725 57.0628 35.6166C56.3957 35.5181 56.3692 35.5051 56.1513 35.1704C55.9373 34.8418 55.4325 33.8225 55.4325 33.7192C55.4325 33.6272 56.6121 34.2745 57.1022 34.6353ZM58.6287 37.0737L59.5951 37.0754L59.9445 37.6485C60.6898 38.8705 61.2129 40.3652 61.3351 41.6218L61.3925 42.2117L61.0541 42.3952C60.5715 42.6569 59.4061 43.5088 58.8499 44.0066L58.3758 44.4309L57.4378 44.0896L56.4998 43.7483L56.4436 43.3197C56.3028 42.2455 55.7058 40.5527 55.0532 39.3768L54.752 38.8341L55.2804 38.1033C55.571 37.7014 55.8992 37.2534 56.0098 37.1078L56.211 36.8429L56.9367 36.9575C57.3359 37.0205 58.0973 37.0728 58.6287 37.0737ZM46.5827 38.2546L47.2019 38.9669L46.9139 39.528C46.3488 40.6295 45.8416 42.2597 45.6824 43.4866L45.6271 43.9123L44.5443 44.3259L43.4616 44.7394L42.8079 44.1547C42.4484 43.8332 41.822 43.36 41.4159 43.1032L40.6777 42.6362L40.7139 42.1693C40.8111 40.9176 41.1178 39.7394 41.6561 38.5495L41.8918 38.0285L42.7372 37.9711C43.6592 37.9085 45.0034 37.7182 45.4192 37.5914C45.5635 37.5475 45.745 37.5184 45.8225 37.5269C45.9 37.5354 46.2421 37.8629 46.5827 38.2546ZM52.8526 39.311L53.4648 39.4138L53.745 39.8686C54.3554 40.8595 55.0826 42.9301 55.0826 43.6775C55.0826 43.8689 55.0019 44.0813 54.861 44.2607C54.3636 44.8937 52.2301 46.4426 51.3871 46.7828C51.0693 46.9111 51.0383 46.9071 50.4405 46.6601C49.2841 46.1824 48.0726 45.3415 47.3744 44.5319C47.0176 44.1182 47.0138 44.1067 47.0679 43.6047C47.2071 42.3114 48.13 39.7336 48.5437 39.4822C48.9843 39.2145 51.6473 39.1087 52.8526 39.311ZM61.2383 44.5181C61.1701 44.8993 61.015 45.5106 60.8937 45.8764C60.663 46.5717 59.9116 48.1121 59.8031 48.1121C59.7305 48.1121 59.4014 46.5797 59.3354 45.934L59.2906 45.4964L59.7883 45.0245C60.2213 44.614 61.3081 43.7677 61.3481 43.8099C61.3558 43.8181 61.3064 44.1368 61.2383 44.5181ZM41.5104 44.8336C41.8325 45.085 42.2101 45.4082 42.3495 45.5519C42.5899 45.7995 42.6003 45.8412 42.5507 46.3564C42.4827 47.0639 42.2988 48.0272 42.2319 48.0272C42.1723 48.0272 41.7187 47.1771 41.4401 46.5432C41.2735 46.1642 40.828 44.6424 40.828 44.4523C40.828 44.3198 40.9121 44.3668 41.5104 44.8336ZM57.0503 45.3783L57.9248 45.7002L57.9844 46.2814C58.058 47.0001 58.2697 47.9445 58.554 48.8236L58.7704 49.4926L58.3477 49.9129C58.1151 50.1441 57.6156 50.5607 57.2376 50.8387C56.424 51.4372 54.766 52.2552 54.6042 52.1379C53.7792 51.54 53.0278 51.0558 52.4406 50.7438L51.7212 50.3617L51.7453 49.2581C51.7615 48.5192 51.8039 48.1332 51.8738 48.0899C51.9311 48.0543 52.3227 47.8251 52.7437 47.5805C53.8008 46.9665 54.4459 46.495 55.2841 45.7234C55.6784 45.3605 56.0402 45.062 56.0883 45.06C56.1364 45.0579 56.5693 45.2012 57.0503 45.3783ZM48.3165 47.0653C48.7373 47.3317 49.3792 47.6751 49.7428 47.8286C50.1065 47.9821 50.3941 48.1278 50.3821 48.1523C50.3701 48.1769 50.3602 48.6703 50.3602 49.2488V50.3006L49.6825 50.6131C48.9462 50.9525 48.0607 51.471 47.5362 51.87L47.2045 52.1223L46.6617 51.8885C45.8164 51.5243 44.7488 50.8134 43.989 50.1088L43.2954 49.4653L43.4207 49.0647C43.6316 48.3901 43.7282 47.9399 43.8778 46.9354L44.0214 45.9709L45.0515 45.5722L46.0815 45.1734L46.8164 45.8773C47.2206 46.2644 47.8957 46.7991 48.3165 47.0653ZM51.5131 51.7706C52.0713 52.0441 53.0052 52.6193 52.961 52.6622C52.9469 52.6758 52.5061 52.7294 51.9813 52.7812C51.2909 52.8494 50.7659 52.8501 50.0826 52.7838C48.8545 52.6646 48.7861 52.6374 49.1531 52.4144C49.3993 52.2647 50.8813 51.5212 50.9531 51.5114C50.9665 51.5096 51.2185 51.6262 51.5131 51.7706Z" fill="#FCFCFC"/>
</svg>
