<svg width="87" height="85" viewBox="0 0 87 85" fill="none" xmlns="http://www.w3.org/2000/svg">
<g filter="url(#filter0_d_701_3005)">
<path fill-rule="evenodd" clip-rule="evenodd" d="M55.6485 29.1788C55.5616 29.0567 55.48 28.9308 55.3886 28.8138C55.2167 28.5935 54.6865 28.5515 54.4403 28.4903C54.2314 28.4385 54.0201 28.3883 53.8143 28.3237C53.5817 28.2506 53.507 28.162 53.3264 28.0172C53.0975 27.8348 52.4478 27.7598 52.4662 28.2196L52.4936 28.9526C52.4936 28.9526 51.4648 29.3087 51.4338 29.3194C51.0981 29.4352 50.6128 29.5369 50.4279 29.8841L48.055 26.1592L46.8265 24.2691C46.8158 24.253 46.9426 24.0358 46.9426 23.9911C46.9419 23.8211 46.8063 23.6466 46.7558 23.4836C46.6773 23.2315 46.6168 22.9714 46.5568 22.7136C46.4953 22.4486 46.4331 22.1787 46.4085 21.907C46.3989 21.8065 46.3727 21.4821 46.4619 21.4175C46.6494 21.2821 46.7519 21.7696 46.9211 21.8314C47.1499 21.9156 47.1686 21.7952 47.3495 21.9573C47.4483 22.045 47.8226 22.7388 47.9711 22.6893L48.7251 23.6765L49.2831 23.874C49.2831 23.874 49.5342 24.0436 49.1157 24.2691C49.1157 24.2691 48.6691 24.749 49.3389 24.6075C49.3389 24.6075 50.1485 24.4947 50.1206 24.2691C50.1206 24.2691 50.7349 23.6765 49.9253 23.0839C49.8571 23.0344 49.6737 22.8585 49.6737 22.8585C49.3389 22.294 48.4734 21.2782 48.4734 21.2782L48.2223 20.6577C47.9238 20.0448 47.7119 19.3794 47.3184 18.817C47.1261 18.5422 46.8884 18.3289 46.6299 18.12C46.3562 17.8992 46.0735 17.6881 45.763 17.523C45.5283 17.3987 45.236 17.3093 45.09 17.0689C44.9979 16.9173 44.8051 16.9304 44.7185 16.7752C44.6755 16.6985 44.5813 16.2929 44.6492 16.2278C44.6492 16.2278 45.319 15.5787 44.5933 15.0426C44.5933 15.0426 45.4866 13.2934 43.0856 13.2372C43.0856 13.2372 40.852 14.0833 42.0247 15.4094C42.0247 15.4094 41.9687 16.4256 42.3036 16.3407L42.6663 17.2718C42.6663 17.2718 42.0833 17.4688 42.0802 17.4692C42.1677 17.44 41.6921 16.9278 41.6446 16.894C41.3337 16.6733 40.9864 16.5135 40.6854 16.2752C40.5451 16.164 40.2401 15.9816 40.1636 15.815C40.0297 15.5214 40.3411 15.1927 40.3721 14.9113C40.3992 14.6658 40.2492 14.4864 40.1099 14.3046C40.0267 14.1955 39.9624 13.9406 39.854 13.8697C39.7595 13.8076 39.3631 13.8201 39.2852 13.9146C39.1911 14.0275 39.2547 14.2566 39.158 14.4012C39.026 14.6012 38.9838 14.6344 39.0097 14.8734C39.0247 15.0168 39.0469 15.1604 39.0791 15.3006C39.0968 15.3774 39.11 15.4995 39.1574 15.5645C39.2278 15.6585 39.3156 15.6892 39.3813 15.7946C39.4463 15.8975 39.5004 16.0084 39.5665 16.1121C39.6756 16.2829 39.804 16.4454 39.9058 16.6213C40.1494 17.0429 40.3875 17.4689 40.6288 17.8925C40.7188 18.0443 40.8097 18.1956 40.8997 18.3479C41.0531 18.6043 41.1036 18.6337 41.3914 18.6696C41.7568 18.7153 41.7547 19.0999 41.7 19.3713C41.6407 19.6657 41.5564 19.9471 41.5564 20.2498C41.5571 20.7355 41.6898 21.2159 41.6898 21.7013C41.6898 21.7013 41.968 24.1234 41.9687 24.1279C42.0708 25.059 42.0843 26.0338 41.7337 26.9173C41.5534 27.3725 41.2748 27.6843 40.9007 27.9861C40.3957 28.3933 40.1244 28.8956 39.8155 29.45C39.5351 29.9528 39.0322 30.368 38.9276 30.9574C38.8692 31.2875 38.9768 31.5979 39.0401 31.9183C39.2855 33.1609 39.2446 34.4812 39.1889 35.7416C39.1889 35.7517 39.1507 36.2231 39.0943 36.1765C39.0869 36.1703 38.7379 36.4079 38.7257 36.415C38.7183 36.4168 38.7276 36.4019 38.7293 36.4013C38.4781 36.5336 38.1951 36.7161 37.9153 36.7742C37.4745 36.8657 36.9096 36.901 36.5279 37.1617C35.989 37.5299 36.7286 37.8531 37.0376 37.9697C38.1162 38.374 39.3177 38.2415 40.4611 38.32C40.4611 38.32 41.075 38.1511 40.7405 37.0225C40.7304 36.5684 40.7309 36.1133 40.7539 35.6594C40.78 35.1451 40.9223 34.6591 41.0871 34.1757C41.2557 33.6811 41.2601 33.411 41.227 32.8988C41.2185 32.7679 40.9911 31.4925 40.9925 31.4919C41.1908 31.3661 41.4725 31.0784 41.7124 31.0753C42.0977 31.0706 42.2339 31.5175 42.5609 31.2889C42.8024 31.1208 42.9303 30.7903 43.1366 30.5828C43.6927 30.0229 44.3537 29.5391 44.9596 29.0353C45.4546 29.2607 45.8908 29.5976 46.3169 29.9331C46.4991 30.0769 46.6566 30.2508 46.8419 30.3913C46.9328 30.4595 47.0404 30.5554 47.153 30.5813C47.2886 30.613 47.3366 30.5047 47.457 30.5109C47.8421 30.5296 48.1176 30.903 48.3645 31.1575C48.687 31.4903 49.0642 31.7641 49.4227 32.0557C50.5939 33.0113 51.62 31.6102 52.4372 30.9302C52.7847 30.6409 53.3758 30.0923 53.8728 30.2598C54.196 30.3689 54.3427 30.301 54.6157 30.1095L55.5085 30.2229C55.5085 30.2229 56.3462 30.1095 55.6485 29.1788ZM23.014 59.9798H25.3601V60.6772H24.5666V64.8615H23.8075V60.6772H23.014V59.9798ZM27.9871 64.8615C27.9778 64.829 27.9686 64.7987 27.9595 64.7708C27.9502 64.7429 27.9422 64.7081 27.9353 64.6662C27.9284 64.6244 27.9238 64.571 27.9215 64.5058C27.9193 64.4407 27.9181 64.3594 27.9181 64.2617V63.4947C27.9181 63.2669 27.8789 63.1064 27.8007 63.0135C27.7225 62.9205 27.596 62.874 27.4212 62.874H27.159V64.8615H26.4V59.9798H27.5454C27.941 59.9798 28.2274 60.0728 28.4045 60.2588C28.5816 60.4447 28.6701 60.7261 28.6701 61.1027V61.4862C28.6701 61.9883 28.5046 62.3184 28.1734 62.4764C28.3666 62.5556 28.4989 62.6845 28.5702 62.8635C28.6414 63.0425 28.6771 63.2598 28.6771 63.5156V64.2687C28.6771 64.3896 28.6817 64.4954 28.6909 64.5861C28.7001 64.6767 28.7231 64.7686 28.7599 64.8615H27.9871ZM27.159 60.6772V62.1766H27.4557C27.5984 62.1766 27.7099 62.1394 27.7904 62.065C27.8709 61.9906 27.9111 61.8558 27.9111 61.6605V61.1794C27.9111 61.0027 27.8801 60.8748 27.818 60.7957C27.7559 60.7167 27.6582 60.6772 27.5247 60.6772H27.159ZM32.4494 64.8615H31.6835L31.5524 63.9758H30.6208L30.4897 64.8615H29.7928L30.5657 59.9798H31.6766L32.4494 64.8615ZM30.7175 63.3134H31.4489L31.0832 60.8446L30.7175 63.3134ZM33.5238 59.9798H34.2828V64.8615H33.5238V59.9798ZM36.1231 61.3258V64.8615H35.44V59.9798H36.3922L37.172 62.9018V59.9798H37.8482V64.8615H37.0684L36.1231 61.3258ZM38.9984 59.9798H39.7575V64.8615H38.9984V59.9798ZM41.5978 61.3258V64.8615H40.9147V59.9798H41.8669L42.6466 62.9018V59.9798H43.3229V64.8615H42.5431L41.5978 61.3258ZM45.6531 62.1487H46.7157V63.6969C46.7157 64.0921 46.6202 64.3943 46.4294 64.6035C46.2385 64.8127 45.9567 64.9173 45.5841 64.9173C45.2114 64.9173 44.9296 64.8116 44.7388 64.6C44.5479 64.3885 44.4524 64.0851 44.4524 63.69V61.1515C44.4524 60.7563 44.5479 60.4529 44.7388 60.2414C44.9296 60.0299 45.2114 59.9241 45.5841 59.9241C45.9567 59.9241 46.2385 60.0299 46.4294 60.2414C46.6202 60.4529 46.7157 60.7563 46.7157 61.1515V61.6256H45.9981V61.1027C45.9981 60.926 45.9624 60.8016 45.8912 60.7296C45.8198 60.6575 45.7244 60.6215 45.6048 60.6215C45.4852 60.6215 45.3897 60.6575 45.3184 60.7296C45.2471 60.8016 45.2114 60.9271 45.2114 61.1038V63.7445C45.2114 63.9212 45.2471 64.0456 45.3184 64.1153C45.3897 64.185 45.4852 64.2199 45.6048 64.2199C45.7244 64.2199 45.8198 64.185 45.8912 64.1153C45.9624 64.0456 45.9981 63.9224 45.9981 63.7457V62.8461H45.6531V62.1487ZM52.7723 63.0483V63.6969C52.7723 64.0921 52.6769 64.3943 52.486 64.6035C52.2951 64.8127 52.0133 64.9173 51.6407 64.9173C51.268 64.9173 50.9862 64.8116 50.7954 64.6C50.6045 64.3885 50.5091 64.0851 50.5091 63.69V61.1515C50.5091 60.7563 50.6045 60.4529 50.7954 60.2414C50.9862 60.0299 51.268 59.9241 51.6407 59.9241C52.0133 59.9241 52.2951 60.0299 52.486 60.2414C52.6769 60.4529 52.7723 60.7563 52.7723 61.1515V61.6256H52.0547V61.1027C52.0547 60.926 52.019 60.8016 51.9478 60.7296C51.8765 60.6575 51.781 60.6215 51.6614 60.6215C51.5418 60.6215 51.4463 60.6575 51.375 60.7296C51.3038 60.8016 51.268 60.9271 51.268 61.1038V63.7445C51.268 63.9212 51.3038 64.0456 51.375 64.1153C51.4463 64.185 51.5418 64.2199 51.6614 64.2199C51.781 64.2199 51.8765 64.185 51.9478 64.1153C52.019 64.0456 52.0547 63.9224 52.0547 63.7457V63.0483H52.7723ZM56.3308 64.8615H55.5648L55.4337 63.9758H54.5022L54.3711 64.8615H53.6742L54.4471 59.9798H55.558L56.3308 64.8615ZM54.5988 63.3134H55.3303L54.9645 60.8446L54.5988 63.3134ZM59.0198 63.4458L59.5373 59.9798H60.5931V64.8615H59.8754V61.3607L59.351 64.8615H58.6334L58.0675 61.4095V64.8615H57.4051V59.9798H58.4609L59.0198 63.4458ZM62.8543 59.9798C63.2362 59.9798 63.5202 60.0821 63.7065 60.2867C63.8929 60.4913 63.986 60.7911 63.986 61.1863V61.8209C63.986 62.2161 63.8929 62.516 63.7065 62.7205C63.5202 62.9251 63.2362 63.0274 62.8543 63.0274H62.4955V64.8615H61.7365V59.9798H62.8543ZM62.4955 60.6772V62.3301H62.8543C62.9739 62.3301 63.0659 62.2975 63.1304 62.2324C63.1947 62.1673 63.2269 62.0464 63.2269 61.8697V61.1375C63.2269 60.9608 63.1947 60.8399 63.1304 60.7749C63.0659 60.7098 62.9739 60.6772 62.8543 60.6772H62.4955ZM7.48271 54.0063C6.24721 54.0476 5.33151 53.8411 4.73533 53.3865C4.13904 52.932 3.90545 52.2811 4.03439 51.434C4.18478 50.4732 4.77824 49.7501 5.81486 49.2645C6.85149 48.779 8.1218 48.5621 9.62567 48.6137C9.905 47.9629 10.1601 47.405 10.391 46.9401C10.622 46.4753 10.8959 45.9923 11.2129 45.4913C11.5297 44.9902 11.8815 44.5666 12.2682 44.2206C12.655 43.8745 13.0685 43.6033 13.509 43.4071C14.2716 43.0661 15.0343 42.9809 15.7971 43.1514C16.5597 43.3218 17.0378 43.7014 17.2311 44.2903C17.5641 45.2717 17.4245 46.8936 16.8122 49.1561C17.7253 49.1871 18.3751 49.1096 18.7619 48.9236C18.9123 48.9029 19.0492 48.9986 19.1727 49.2103C19.2963 49.4221 19.3206 49.5693 19.2453 49.6519C18.9123 49.9103 18.5551 50.0884 18.1738 50.1866C17.7924 50.2847 17.2419 50.3699 16.5222 50.4423C16.404 50.8968 16.1409 51.9711 15.7326 53.6654C15.4318 53.9133 14.8652 54.0296 14.0327 54.0141C13.2001 53.9986 12.7624 53.8617 12.7195 53.6035C12.7517 53.4588 12.8134 53.2135 12.9048 52.8674C12.996 52.5213 13.1114 52.0951 13.2511 51.5889C13.3908 51.0828 13.4928 50.7005 13.5573 50.4423C13.0632 50.4113 12.5045 50.3958 11.8815 50.3958C11.5915 51.0466 11.3364 51.5579 11.1162 51.9298C10.8959 52.3018 10.6167 52.6608 10.2782 53.0068C9.93993 53.3529 9.54777 53.6008 9.10196 53.7507C8.65625 53.9004 8.11644 53.9857 7.48271 54.0063ZM13.9279 48.9547C14.3898 47.4463 14.6692 46.2532 14.7658 45.375C14.7873 45.1478 14.7067 45.0238 14.5241 45.0031C14.3093 44.9825 14.1213 45.1168 13.9601 45.406C13.4016 46.4288 12.8913 47.5858 12.4294 48.8771L13.9279 48.9547ZM7.49877 52.3483C8.08953 52.307 8.60515 51.5993 9.04559 50.2253C8.69109 50.2046 8.30175 50.2976 7.87738 50.5042C7.45304 50.7108 7.18182 51.0001 7.0637 51.372C6.96706 51.5993 6.95086 51.8214 7.01533 52.0383C7.07981 52.2553 7.24092 52.3586 7.49877 52.3483ZM19.197 47.3276C19.4656 47.1519 19.9838 47.1029 20.7519 47.1803C21.52 47.2578 21.9846 47.436 22.1457 47.7149C22.0597 48.0559 21.9363 48.4871 21.7751 49.0089C21.614 49.5305 21.4851 49.9593 21.3884 50.295C21.2917 50.6308 21.2058 50.9691 21.1305 51.31C21.0554 51.6509 21.0338 51.9066 21.0661 52.0771C21.0984 52.2475 21.1843 52.3327 21.324 52.3327C21.5388 52.3327 21.716 52.2398 21.8557 52.0538C21.716 51.8989 21.708 51.6897 21.8314 51.4262C21.955 51.1628 22.1671 51.0414 22.468 51.0621C22.9729 50.1013 23.3166 48.8617 23.4993 47.343C23.714 47.1261 24.2136 47.0486 24.9978 47.1106C25.7819 47.1726 26.2654 47.3585 26.448 47.6684C26.1901 49.7656 25.5456 51.2739 24.5143 52.1933C25.7174 52.3792 26.6735 51.9298 27.3825 50.8451C27.4577 50.7625 27.608 50.7934 27.8337 50.9382C28.0593 51.0828 28.1559 51.1964 28.1237 51.279C27.9196 51.6406 27.6994 51.9505 27.4631 52.2088C27.2268 52.467 26.969 52.6608 26.6897 52.7899C26.4104 52.919 26.166 53.0224 25.9565 53.0998C25.7471 53.1773 25.4758 53.2135 25.1428 53.2083C24.8099 53.2031 24.5762 53.1953 24.4419 53.185C24.3076 53.1747 24.0793 53.1488 23.757 53.1076C23.6389 53.0972 23.5529 53.0869 23.4993 53.0766C22.5754 53.6551 21.5764 53.9598 20.5021 53.9908C19.7609 54.0011 19.1943 53.8694 18.8022 53.5956C18.4101 53.3219 18.2033 52.9112 18.1819 52.3637C18.1604 51.4133 18.4987 49.7346 19.197 47.3276ZM31.8458 47.219C32.6515 47.1261 33.4787 47.1623 34.3273 47.3276C35.1759 47.4928 35.8366 47.813 36.3092 48.2883C36.3737 48.5362 36.2556 48.8255 35.9548 49.1561C35.6539 49.4866 35.4122 49.6416 35.2297 49.6209C34.6173 49.1354 33.8063 48.9029 32.7965 48.9236C32.3024 48.9236 31.8512 49.0993 31.443 49.4505C31.0349 49.8017 30.7448 50.2511 30.5729 50.7986C30.2507 51.8421 30.3151 52.3431 30.7663 52.3018C31.0562 52.2708 31.3651 51.9763 31.6928 51.4185C32.0204 50.8606 32.2971 50.2873 32.5227 49.6984C32.8234 49.5538 33.2718 49.5487 33.8681 49.683C34.4643 49.8172 34.8376 49.9825 34.9879 50.1788C34.902 50.4061 34.7946 50.7108 34.6657 51.0931C34.4401 51.8989 34.5422 52.3018 34.9719 52.3018C35.3263 52.2914 35.6835 52.1519 36.0434 51.8833C36.4032 51.6147 36.7067 51.2739 36.9538 50.8606C37.0182 50.7986 37.1122 50.7909 37.2357 50.8374C37.3592 50.8839 37.4747 50.9588 37.5821 51.0621C37.6896 51.1654 37.7325 51.2377 37.7111 51.279C36.5724 53.1385 35.1276 54.0476 33.3766 54.0063C32.3346 53.9754 31.9425 53.3658 32.2003 52.1778C32.0178 52.5188 31.8325 52.808 31.6444 53.0456C31.4565 53.2832 31.1718 53.5027 30.7905 53.7042C30.4091 53.9056 29.9767 54.0063 29.4934 54.0063C27.8391 54.0063 27.0871 53.1799 27.2374 51.527C27.3127 50.6902 27.6161 49.9438 28.1479 49.2878C28.6797 48.6317 29.2677 48.1437 29.9122 47.8235C30.5568 47.5031 31.2013 47.3017 31.8458 47.219ZM43.3829 47.1571C43.9307 47.1674 44.3094 47.3533 44.5189 47.7149C44.7283 48.0765 44.7526 48.5672 44.5914 49.1871C44.5592 49.3317 44.4544 49.6778 44.2773 50.2253C44.1 50.7728 43.9845 51.1757 43.9307 51.434C43.8664 51.7025 43.8664 51.9144 43.9307 52.0694C43.9953 52.2243 44.0866 52.3018 44.2047 52.3018C44.4626 52.2914 44.7499 52.1468 45.0667 51.8679C45.3836 51.5889 45.6657 51.2532 45.9127 50.8606C45.9772 50.7574 46.1276 50.7806 46.3639 50.9303C46.6002 51.0802 46.7022 51.1964 46.6701 51.279C45.6066 53.0456 44.3013 53.9546 42.7545 54.0063C41.8415 54.0373 41.2426 53.8359 40.9579 53.402C40.6732 52.9681 40.6329 52.3792 40.837 51.6354C41.0948 50.7057 41.2721 50.0394 41.3688 49.6365C41.4655 49.2955 41.3956 49.125 41.1593 49.125C40.923 49.125 40.6598 49.2336 40.3697 49.4505C40.273 49.7914 39.9079 51.1912 39.274 53.65C39.231 53.8049 38.941 53.9185 38.404 53.9908C37.8668 54.0632 37.3485 54.0632 36.849 53.9908C36.3495 53.9185 36.1266 53.7843 36.1803 53.5879C36.3522 52.9578 36.6262 51.9377 37.0021 50.5274C37.3781 49.1173 37.6627 48.0765 37.8561 47.405C38.1461 47.219 38.6672 47.1597 39.4191 47.2268C40.171 47.294 40.6329 47.4619 40.8048 47.7305L40.6436 48.2418C41.7072 47.5084 42.6202 47.1468 43.3829 47.1571ZM55.3389 50.8451C55.3927 50.7934 55.4786 50.7909 55.5968 50.8374C55.715 50.8839 55.8305 50.9588 55.9432 51.0621C56.056 51.1654 56.1017 51.2377 56.0802 51.279C55.4356 52.3534 54.8153 53.2031 54.2192 53.8281C53.6229 54.4531 52.9757 54.8999 52.2775 55.1685C52.1378 55.6541 51.9928 56.057 51.8424 56.3772C51.692 56.6975 51.4718 57.0384 51.1818 57.4C50.8917 57.7616 50.5077 58.0328 50.0297 58.2135C49.5516 58.3943 48.9849 58.4795 48.3297 58.4692C47.5456 58.4589 46.9413 58.2987 46.517 57.9888C46.0927 57.6789 45.9128 57.2037 45.9772 56.5632C46.1276 55.2202 47.4972 54.4092 50.0861 54.1303C50.129 53.9857 50.2122 53.7145 50.3358 53.3167C50.4594 52.919 50.5534 52.6272 50.6178 52.4413C50.3278 52.9061 49.984 53.2806 49.5866 53.5647C49.1891 53.8488 48.652 53.996 47.9752 54.0063C47.0836 54.0167 46.4552 53.7377 46.09 53.1696C45.7248 52.6013 45.6254 51.9376 45.7919 51.1783C45.9584 50.419 46.3101 49.7243 46.8473 49.0941C47.277 48.5879 47.8114 48.1695 48.4506 47.8389C49.0897 47.5084 49.7102 47.3069 50.3116 47.2346C51.0851 47.1415 51.8908 47.1674 52.7286 47.312C53.5665 47.4566 54.2702 47.7821 54.8395 48.2883C54.9255 48.4846 54.8206 48.7583 54.5252 49.1096C54.2299 49.4609 53.9801 49.6313 53.776 49.6209C53.0777 49.0941 52.2399 48.8564 51.2624 48.9082C50.7789 48.9185 50.3385 49.0864 49.9411 49.4118C49.5436 49.7372 49.2481 50.1633 49.0549 50.6902C48.8937 51.1861 48.8265 51.5683 48.8534 51.8368C48.8803 52.1055 48.9636 52.2605 49.1032 52.3018C49.2428 52.3431 49.4255 52.2837 49.651 52.1236C49.8765 51.9634 50.1129 51.6665 50.36 51.2326C50.7252 50.561 50.9669 50.0548 51.0851 49.7139C51.3321 49.5383 51.8048 49.5383 52.5031 49.7139C53.2013 49.8895 53.5987 50.0859 53.6954 50.3027C53.5557 50.7883 53.3919 51.3668 53.204 52.0383C53.016 52.7098 52.8414 53.309 52.6803 53.8359C53.5182 53.3504 54.4045 52.3534 55.3389 50.8451ZM49.3609 56.3618C49.5006 56.0311 49.6027 55.7057 49.6672 55.3855C48.9259 55.5095 48.4801 55.8194 48.3297 56.3153C48.2437 56.5942 48.3244 56.775 48.5714 56.8577C48.8293 56.9402 49.0549 56.8472 49.2482 56.5786C49.2912 56.5167 49.3287 56.4443 49.3609 56.3618ZM59.8023 47.219C60.608 47.1261 61.4352 47.1623 62.2838 47.3276C63.1324 47.4928 63.793 47.813 64.2657 48.2883C64.3302 48.5362 64.212 48.8255 63.9112 49.1561C63.6104 49.4866 63.3687 49.6416 63.1861 49.6209C62.5738 49.1354 61.7628 48.9029 60.753 48.9236C60.2589 48.9236 59.8077 49.0993 59.3996 49.4505C58.9913 49.8017 58.7013 50.2511 58.5293 50.7986C58.2071 51.8421 58.2716 52.3431 58.7228 52.3018C59.0128 52.2708 59.3217 51.9763 59.6493 51.4185C59.9769 50.8606 60.2535 50.2873 60.4791 49.6984C60.7799 49.5538 61.2283 49.5487 61.8245 49.683C62.4207 49.8172 62.794 49.9825 62.9444 50.1788C62.8584 50.4061 62.7511 50.7108 62.6221 51.0931C62.3965 51.8989 62.4986 52.3018 62.9283 52.3018C63.2828 52.2914 63.64 52.1519 63.9998 51.8833C64.3597 51.6147 64.6632 51.2739 64.9102 50.8606C64.9747 50.7986 65.0686 50.7909 65.1923 50.8374C65.3158 50.8839 65.4312 50.9588 65.5386 51.0621C65.6461 51.1654 65.689 51.2377 65.6675 51.279C64.5289 53.1385 63.0841 54.0476 61.3331 54.0063C60.2912 53.9754 59.899 53.3658 60.1569 52.1778C59.9742 52.5188 59.7889 52.808 59.6009 53.0456C59.4129 53.2832 59.1283 53.5027 58.7469 53.7042C58.3656 53.9056 57.9331 54.0063 57.4498 54.0063C55.7955 54.0063 55.0436 53.1799 55.194 51.527C55.2692 50.6902 55.5726 49.9438 56.1043 49.2878C56.6361 48.6317 57.2242 48.1437 57.8688 47.8235C58.5133 47.5031 59.1577 47.3017 59.8023 47.219ZM65.4742 51.5735C65.3989 51.6561 65.2943 51.6871 65.16 51.6665C65.0257 51.6458 64.9022 51.5838 64.7894 51.4805C64.6766 51.3772 64.647 51.279 64.7007 51.1861C65.3989 50.0807 65.9092 49.0218 66.2315 48.0094C65.7052 47.2449 65.6621 46.5734 66.1026 45.9949C66.4248 45.5816 66.8331 45.375 67.3272 45.375C67.8535 45.375 68.192 45.6127 68.3423 46.0879C68.4068 46.3048 68.423 46.5631 68.3907 46.8626C68.4981 46.9556 68.6995 47.1106 68.995 47.3276C69.2903 47.5445 69.5079 47.7098 69.6475 47.8235C69.7872 47.937 69.9563 48.0972 70.155 48.3038C70.3538 48.5104 70.48 48.6938 70.5337 48.8539C70.5875 49.014 70.6063 49.2026 70.5902 49.4195C70.574 49.6365 70.4908 49.8534 70.3404 50.0703C69.9537 50.6282 69.6985 51.155 69.575 51.6509C69.4514 52.1468 69.5186 52.4361 69.7764 52.5188C70.1416 52.6323 70.5822 52.5394 71.0977 52.2398C71.6133 51.9402 72.0591 51.4753 72.4351 50.8451C72.4996 50.7521 72.6527 50.7832 72.8944 50.9382C73.136 51.0931 73.2354 51.2067 73.1924 51.279C72.9776 51.6096 72.8084 51.8601 72.6849 52.0306C72.5614 52.201 72.3518 52.4387 72.0565 52.7434C71.7611 53.0481 71.4709 53.278 71.1863 53.433C70.9017 53.5879 70.5311 53.7274 70.0745 53.8514C69.618 53.9754 69.1211 54.0322 68.584 54.0218C67.4132 54.0011 66.7069 53.5776 66.4652 52.7512C66.2234 51.9247 66.5001 50.8399 67.2951 49.497C67.5421 49.0837 67.4347 48.7635 66.9727 48.5362C66.629 49.5796 66.1295 50.5921 65.4742 51.5735ZM79.1704 43.4071C79.3101 43.2831 79.6163 43.2107 80.0889 43.1901C80.5615 43.1695 81.0181 43.2107 81.4585 43.3141C81.8989 43.4174 82.146 43.5671 82.1997 43.7635C82.146 43.97 81.8184 45.0652 81.2168 47.0486C80.6153 49.0321 80.2607 50.3906 80.1533 51.1241C80.0889 51.5166 80.0862 51.8214 80.1453 52.0383C80.2043 52.2553 80.3306 52.3483 80.5239 52.3173C80.7817 52.2759 81.0665 52.1262 81.378 51.8679C81.6894 51.6096 81.9741 51.2739 82.2319 50.8606C82.2965 50.7986 82.3904 50.7909 82.5139 50.8374C82.6374 50.8839 82.7555 50.9588 82.8685 51.0621C82.9812 51.1654 83.0215 51.2377 82.9892 51.279C81.8829 53.0972 80.5293 54.0063 78.9287 54.0063C77.8975 54.0063 77.355 53.402 77.3013 52.1933C77.1402 52.4516 76.9898 52.6685 76.8501 52.8441C76.7105 53.0198 76.5279 53.2057 76.3023 53.402C76.0766 53.5982 75.8108 53.7481 75.5046 53.8514C75.1986 53.9546 74.8574 54.0063 74.4815 54.0063C73.5361 54.0167 72.8944 53.7197 72.5559 53.1153C72.2175 52.5109 72.1719 51.7852 72.4189 50.9382C72.7628 49.7295 73.461 48.7919 74.5137 48.1256C75.5664 47.4593 76.7696 47.1364 78.1231 47.1571C78.3057 46.5166 78.5125 45.7753 78.7434 44.9334C78.9744 44.0915 79.1167 43.5827 79.1704 43.4071ZM77.6397 48.8926C76.9951 48.9753 76.4579 49.3058 76.0283 49.8844C75.8672 50.1013 75.7168 50.388 75.5772 50.7444C75.4375 51.1008 75.3703 51.4418 75.3757 51.7672C75.3811 52.0926 75.4966 52.2759 75.7222 52.3173C76.066 52.3792 76.4123 52.0745 76.7616 51.403C77.1106 50.7315 77.4034 49.8947 77.6397 48.8926ZM16.6268 36.9498C16.6341 36.8035 16.6413 36.652 16.6475 36.4958C16.6524 36.3906 16.657 36.283 16.662 36.1733C16.6704 36.0641 16.6871 35.9528 16.6994 35.8399C16.7244 35.6136 16.7501 35.3801 16.7769 35.1396C16.8152 34.6577 16.9137 34.1572 16.9976 33.6372C17.0685 33.115 17.2047 32.5867 17.3166 32.0455C17.4187 31.5016 17.5892 30.9644 17.7265 30.4201C17.869 29.8766 18.0474 29.3427 18.2051 28.8123C18.3937 28.2919 18.5481 27.7683 18.7385 27.2761C18.9261 26.7832 19.0966 26.3018 19.2835 25.8554C19.4609 25.4045 19.641 24.9839 19.8067 24.5945C19.9776 24.2071 20.1342 23.852 20.2729 23.537C20.4195 23.2261 20.5424 22.9517 20.6538 22.7313C20.7123 22.6118 20.7636 22.5071 20.8081 22.4163L20.8177 22.468L30.8015 20.4483C30.9162 20.6414 31.0395 20.8431 31.1714 21.0539C31.4153 21.4421 31.6853 21.8593 31.9837 22.2915C32.2849 22.7213 32.5972 23.1799 32.9484 23.632C33.2897 24.0924 33.6539 24.5594 34.0373 25.0226C34.4103 25.4947 34.8227 25.9454 35.2183 26.4109C35.6245 26.8666 36.0493 27.3054 36.4575 27.746C36.6623 27.958 36.87 28.1638 37.0763 28.3662C37.1507 28.2592 37.2279 28.1458 37.3078 28.0223L37.3278 27.9864L36.7879 27.4249C36.387 26.9838 35.97 26.5453 35.5711 26.09C35.1765 25.6314 34.7622 25.1894 34.3888 24.7245C34.1974 24.4961 34.0078 24.2693 33.8202 24.0453C33.6326 23.8216 33.4566 23.5926 33.2781 23.3719C32.9207 22.9302 32.589 22.4931 32.2704 22.0803C31.958 21.6636 31.6644 21.2675 31.3972 20.8992C31.2516 20.6924 31.1118 20.4973 30.9799 20.3112L36.3237 10.4551C36.6317 10.4165 36.9719 10.3722 37.3408 10.3196C37.5425 10.2865 37.7557 10.2737 37.9755 10.2534C38.1949 10.2325 38.422 10.2108 38.6554 10.1884C39.1211 10.1413 39.6126 10.0917 40.121 10.0405C40.6274 9.97402 41.1571 9.96342 41.6911 9.91269C42.2261 9.8702 42.7691 9.8269 43.3123 9.78397C43.8562 9.744 44.4007 9.71668 44.9363 9.68282C45.4723 9.65617 45.9988 9.60167 46.5099 9.58452C47.5315 9.5304 48.4853 9.48017 49.3028 9.43715C49.9459 9.40382 50.5028 9.37478 50.9446 9.35158L58.6121 20.4313C58.4135 20.7589 58.1472 21.2073 57.8402 21.7446C57.5079 22.3218 57.1293 23 56.7324 23.7313C56.536 24.0982 56.3271 24.4738 56.1259 24.8615L55.644 25.7809C55.8026 25.8211 55.9561 25.8655 56.1047 25.917L56.5322 25.0759C56.7318 24.6869 56.9174 24.2991 57.1025 23.9267C57.4692 23.1794 57.8027 22.4775 58.081 21.8717C58.3324 21.3293 58.5384 20.8651 58.6895 20.5167L67.7047 20.997C67.7943 21.1781 67.8973 21.3865 68.0136 21.6214C68.0864 21.7628 68.157 21.917 68.2271 22.0814C68.3008 22.2442 68.3786 22.4152 68.4595 22.5936C68.6181 22.9515 68.8064 23.331 68.9724 23.7476C69.1415 24.1628 69.3326 24.5946 69.5118 25.0487C69.6848 25.5055 69.8636 25.977 70.0452 26.4565C70.2097 26.9419 70.3946 27.4288 70.5474 27.9269C70.702 28.4241 70.8734 28.9161 71.004 29.4122C71.0746 29.6586 71.145 29.9031 71.2142 30.1446C71.2773 30.3879 71.3395 30.6283 71.4003 30.8648C71.5264 31.3371 71.6266 31.7987 71.7312 32.2347C71.8226 32.6733 71.9158 33.0876 71.9883 33.4725C72.0595 33.8578 72.1283 34.2106 72.1798 34.5254L72.1875 34.5694L70.9878 36.9498H75.2628C75.317 36.5892 75.3653 36.2259 75.4074 35.8603C75.6267 33.958 75.6606 31.9915 75.5266 30.0028C75.3928 28.0134 75.0637 26.0025 74.5446 24.0144C74.028 22.0256 73.312 20.0615 72.3998 18.173C71.489 16.2842 70.3939 14.4645 69.1137 12.7745L68.6326 12.141C68.4698 11.932 68.2935 11.734 68.1243 11.5295L67.6107 10.9212C67.4425 10.7174 67.2448 10.5254 67.0639 10.3262C66.6949 9.93163 66.3187 9.52472 65.9549 9.18686L65.3976 8.66344L65.2432 8.54965L65.1399 8.5215L65.079 8.46559L65.0765 8.39438L64.8118 8.09371C63.2275 6.6811 61.5067 5.42314 59.6874 4.35121C57.8697 3.2754 55.9465 2.40317 53.9798 1.722C50.044 0.358274 45.9145 -0.174867 41.9767 0.0496719C38.0325 0.258282 34.2912 1.23875 30.9945 2.68556C29.3422 3.40408 27.8034 4.25693 26.3951 5.19534C26.0414 5.42775 25.6913 5.65878 25.3609 5.91226C25.0285 6.1621 24.6907 6.39783 24.372 6.65229C24.0566 6.9105 23.7439 7.1664 23.4343 7.41997C23.1228 7.67019 22.8402 7.94944 22.5467 8.20854C22.4019 8.34026 22.2579 8.47092 22.1143 8.60105C21.9713 8.73196 21.8369 8.8755 21.699 9.01105C21.4262 9.28516 21.1563 9.55627 20.8892 9.82461C20.6441 10.0968 20.4019 10.3662 20.1626 10.6322C20.0434 10.7658 19.9249 10.8984 19.8072 11.0299C19.6914 11.1758 19.5767 11.3206 19.4626 11.4647C19.2423 11.7446 19.0248 12.0205 18.8102 12.293C18.7033 12.429 18.5968 12.5642 18.4915 12.6983C18.3863 12.8328 18.2963 12.978 18.1992 13.1153C18.0091 13.3934 17.8217 13.6674 17.6368 13.9373C17.5446 14.0723 17.4535 14.2061 17.3623 14.3388L17.227 14.537L17.1054 14.7425C15.7379 16.8794 14.8897 18.9314 14.2559 20.6194C14.11 21.0467 13.9719 21.4516 13.8418 21.8324C13.8099 21.9277 13.7785 22.0213 13.7476 22.1135C13.7222 22.2078 13.6976 22.3009 13.6732 22.3923C13.6253 22.5751 13.5788 22.7512 13.5339 22.9212C13.3563 23.6007 13.1936 24.1724 13.1163 24.6475C12.9358 25.593 12.8395 26.0969 12.8395 26.0969C12.8395 26.0969 12.9866 25.6055 13.2615 24.6837C13.382 24.2169 13.5973 23.6649 13.8334 23.0149C14.0523 22.3594 14.3821 21.6336 14.7342 20.8177C14.8982 20.4047 15.1252 19.9936 15.3464 19.5568C15.4584 19.3389 15.5726 19.1164 15.6896 18.8884C15.7489 18.7752 15.8041 18.6583 15.8686 18.5444C15.9357 18.4326 16.0037 18.3194 16.0724 18.2047C16.3453 17.7477 16.63 17.2724 16.9247 16.7789C17.2483 16.3054 17.584 15.8154 17.9301 15.3084L18.0617 15.1193L18.2081 14.9391C18.2353 14.9042 18.2643 14.87 18.2924 14.8357C18.4748 14.9126 18.6753 14.9913 18.8952 15.0689C19.0898 15.1381 19.2963 15.2048 19.5057 15.2684L20.7938 22.3383C20.7308 22.4331 20.6565 22.5476 20.5734 22.6861C20.4411 22.8958 20.293 23.1578 20.1165 23.4552C19.9489 23.7572 19.7525 24.0951 19.5618 24.4757C19.3685 24.8551 19.1574 25.266 18.9595 25.7125C18.7497 26.1537 18.5495 26.6291 18.3495 27.1236C18.2444 27.3688 18.1523 27.6238 18.0568 27.8818C17.9627 28.1398 17.8671 28.401 17.7709 28.664C17.6057 29.2004 17.4195 29.7395 17.2693 30.2899C17.1983 30.5664 17.1273 30.8427 17.0568 31.1181C17.0224 31.2557 16.9841 31.3925 16.9533 31.5305C16.9249 31.6692 16.8966 31.8075 16.8688 31.945C16.7549 32.4956 16.6446 33.0376 16.5843 33.5709C16.5493 33.8364 16.5148 34.0972 16.4812 34.3526C16.4411 34.6074 16.4439 34.8616 16.4236 35.106C16.4011 35.5966 16.3485 36.0577 16.3749 36.4872C16.3776 36.6466 16.3816 36.801 16.386 36.9498H16.6268ZM19.1098 13.8293C19.212 13.7032 19.3295 13.5903 19.4396 13.468C19.5497 13.3458 19.6608 13.2225 19.7724 13.0983C19.9955 12.8507 20.2216 12.5998 20.4507 12.3454C20.5616 12.2224 20.6497 12.0776 20.7619 11.953C20.8239 11.8912 20.8807 11.8241 20.9374 11.7566C20.9954 11.6882 21.0532 11.6196 21.1171 11.556C21.3696 11.3031 21.6254 11.047 21.8841 10.7879C22.1468 10.5508 22.4127 10.3105 22.6814 10.0682C22.817 9.94815 22.9466 9.82248 23.0889 9.70514C23.2323 9.58844 23.3761 9.47111 23.5206 9.35308C23.8131 9.12146 24.0941 8.86964 24.403 8.64761C24.7093 8.42266 25.0183 8.1953 25.3304 7.96571C25.645 7.74049 25.9771 7.5342 26.3034 7.31455C26.6274 7.09083 26.9702 6.89024 27.3157 6.68856C28.2185 6.15392 29.1628 5.64232 30.1512 5.18023C30.0545 5.45415 29.9591 5.74695 29.8739 6.0431C29.8189 6.23356 29.7698 6.42342 29.7239 6.61105C28.9328 6.97726 26.8536 8.02438 24.4223 9.92611C21.1526 12.4841 19.7696 14.3656 19.4876 14.7758C19.325 14.7347 19.164 14.6965 19.0084 14.6626C18.8332 14.6241 18.6689 14.5936 18.5114 14.5665C18.7046 14.3212 18.9112 14.0823 19.1098 13.8293ZM42.073 2.3831C43.9044 2.33331 45.7701 2.43892 47.6298 2.73043C49.4893 3.02295 51.3422 3.49404 53.1488 4.13853C53.4077 4.23121 53.6649 4.32901 53.9216 4.42935L50.9234 9.22305C50.4842 9.19956 49.9333 9.17247 49.299 9.16278C48.8885 9.153 48.4436 9.14011 47.9734 9.1482C47.5031 9.15281 47.0069 9.15789 46.4938 9.16278C45.9803 9.16783 45.4505 9.19549 44.9121 9.2202C44.3738 9.24864 43.8265 9.27043 43.2799 9.30508C42.7341 9.35406 42.1883 9.40275 41.6513 9.45057C41.3827 9.4759 41.1164 9.50114 40.8533 9.52613C40.5902 9.54906 40.331 9.58204 40.0765 9.61964C39.5678 9.69357 39.0762 9.76513 38.6102 9.83305C38.1445 9.90557 37.7029 9.96007 37.3004 10.0471C36.9719 10.1161 36.668 10.1837 36.3902 10.2468L30.2163 6.55069C30.2556 6.42743 30.2939 6.30308 30.3301 6.17721C30.4172 5.87466 30.4936 5.56935 30.5577 5.28056C30.5824 5.17185 30.6044 5.06637 30.6252 4.96353C30.9902 4.80157 31.3612 4.6464 31.7389 4.50028C34.8854 3.2569 38.4082 2.49551 42.073 2.3831ZM72.1873 24.6664C72.7025 26.495 73.0376 28.3519 73.2164 30.1943C73.3807 31.8778 73.3907 33.5489 73.2936 35.1837L72.363 34.6286C72.3602 34.5875 72.3578 34.5473 72.3546 34.5046C72.3359 34.1836 72.304 33.8227 72.2565 33.4304C72.2125 33.0373 72.1505 32.6133 72.078 32.1661C71.9954 31.721 71.9227 31.2473 71.8064 30.7668C71.7523 30.5259 71.6971 30.2805 71.641 30.0321C71.5764 29.7861 71.5111 29.5371 71.445 29.2859C71.3181 28.7822 71.1501 28.2823 70.9984 27.7771C70.8395 27.2742 70.6464 26.7831 70.4746 26.2938C70.2947 25.8071 70.0834 25.3416 69.8974 24.8846C69.7054 24.4299 69.4865 24.0048 69.2943 23.5961C69.1077 23.1844 68.8896 22.8155 68.7027 22.4689C68.5107 22.1244 68.3457 21.8035 68.169 21.5359C68.0165 21.2935 67.8825 21.0807 67.768 20.8991L68.0283 15.7221C68.8096 16.872 69.5144 18.0689 70.1261 19.3063C70.982 21.0381 71.6703 22.8385 72.1873 24.6664ZM51.9855 66.2776L43.5002 74.8527L35.0144 66.2776H32.892L43.5002 77L54.1083 66.2776H51.9855ZM11.7253 42.7404L9.40828 40.3983H77.592L75.2745 42.7404H77.3974L81.2157 38.8814H5.78437L9.60256 42.7404H11.7253ZM46.839 36.8802C46.839 35.8757 46.0333 35.0615 45.0393 35.0615C44.0454 35.0615 43.2398 35.8757 43.2398 36.8802C43.2398 37.8847 44.0454 38.6991 45.0393 38.6991C46.0333 38.6991 46.839 37.8847 46.839 36.8802Z" fill="#FCFCFC"/>
</g>
<defs>
<filter id="filter0_d_701_3005" x="0" y="0" width="87" height="85" filterUnits="userSpaceOnUse" color-interpolation-filters="sRGB">
<feFlood flood-opacity="0" result="BackgroundImageFix"/>
<feColorMatrix in="SourceAlpha" type="matrix" values="0 0 0 0 0 0 0 0 0 0 0 0 0 0 0 0 0 0 127 0" result="hardAlpha"/>
<feOffset dy="4"/>
<feGaussianBlur stdDeviation="2"/>
<feComposite in2="hardAlpha" operator="out"/>
<feColorMatrix type="matrix" values="0 0 0 0 0 0 0 0 0 0 0 0 0 0 0 0 0 0 0.25 0"/>
<feBlend mode="normal" in2="BackgroundImageFix" result="effect1_dropShadow_701_3005"/>
<feBlend mode="normal" in="SourceGraphic" in2="effect1_dropShadow_701_3005" result="shape"/>
</filter>
</defs>
</svg>
