<svg width="43" height="52" viewBox="0 0 43 52" fill="none" xmlns="http://www.w3.org/2000/svg">
<path d="M41.5 21.5C41.5 37.25 21.25 50.75 21.25 50.75C21.25 50.75 1 37.25 1 21.5C1 16.1294 3.13348 10.9787 6.93109 7.18109C10.7287 3.38348 15.8794 1.25 21.25 1.25C26.6206 1.25 31.7713 3.38348 35.5689 7.18109C39.3665 10.9787 41.5 16.1294 41.5 21.5Z" stroke="#FCFCFC" stroke-width="2" stroke-linecap="round" stroke-linejoin="round"/>
<path d="M21.25 28.25C24.9779 28.25 28 25.2279 28 21.5C28 17.7721 24.9779 14.75 21.25 14.75C17.5221 14.75 14.5 17.7721 14.5 21.5C14.5 25.2279 17.5221 28.25 21.25 28.25Z" stroke="#FCFCFC" stroke-width="2" stroke-linecap="round" stroke-linejoin="round"/>
</svg>
