<svg width="70" height="70" viewBox="0 0 70 70" fill="none" xmlns="http://www.w3.org/2000/svg">
<rect x="0.5" y="0.5" width="69" height="69" rx="34.5" stroke="#FCFCFC"/>
<path fill-rule="evenodd" clip-rule="evenodd" d="M21.2278 19.1633L21.0645 19.3266V34.0666V48.8065H20.6956C20.3925 48.8065 20.2974 48.8357 20.1633 48.9698C20.0013 49.1317 20 49.1434 20 50.4032C20 51.6631 20.0013 51.6747 20.1633 51.8367L20.3266 52H36.4994H52.6723L52.8355 51.8367C52.9975 51.6747 52.9989 51.6631 52.9989 50.4032C52.9989 48.7034 53.0953 48.8065 51.5049 48.8065H50.3377V48.2532V47.6999L50.7202 47.5423C50.9784 47.4361 51.2342 47.2535 51.5067 46.9812C52.1361 46.3523 52.4666 45.5148 52.4666 44.5484C52.4666 43.2733 51.8532 42.1558 50.8568 41.6154C50.4677 41.4045 50.3942 41.3881 49.8377 41.3881C49.2947 41.3881 49.196 41.4087 48.795 41.6059C47.2781 42.3521 46.6905 44.4817 47.5243 46.2117C47.7652 46.7116 48.4072 47.3388 48.8895 47.5453L49.2709 47.7087L49.2721 48.2576L49.2732 48.8065H47.6765H46.0798V40.9859V33.1653L45.9164 33.002L45.7532 32.8387H41.6585H37.5639V26.0827V19.3266L37.4006 19.1633L37.2373 19H29.3142H21.3911L21.2278 19.1633ZM36.4994 26.4516V32.8387H35.9672H35.435V30.873V28.9073L35.2716 28.744L35.1084 28.5806H32.7738H30.4392L30.2759 28.744L30.1126 28.9073V31.7742V34.6411L30.2759 34.8044C30.4332 34.9618 30.4722 34.9677 31.3404 34.9677H32.2415V35.5V36.0323H31.3404C30.4722 36.0323 30.4332 36.0382 30.2759 36.1956L30.1126 36.3589V39.2258V42.0927L30.2759 42.256C30.4332 42.4134 30.4722 42.4194 31.3404 42.4194H32.2415V42.9516V43.4839H29.4775H26.7135L26.5502 43.6472L26.3869 43.8105V46.3085V48.8065H24.2579H22.129V34.4355V20.0645H29.3142H36.4994V26.4516ZM23.889 21.2924L23.7257 21.4556V24.3226V27.1895L23.889 27.3528L24.0523 27.5161H26.3869H28.7215L28.8847 27.3528L29.0481 27.1895V24.3226V21.4556L28.8847 21.2924L28.7215 21.129H26.3869H24.0523L23.889 21.2924ZM30.2759 21.2924L30.1126 21.4556V24.3226V27.1895L30.2759 27.3528L30.4392 27.5161H32.7738H35.1084L35.2716 27.3528L35.435 27.1895V24.3226V21.4556L35.2716 21.2924L35.1084 21.129H32.7738H30.4392L30.2759 21.2924ZM27.9836 24.3226V26.4516H26.3869H24.7902V24.3226V22.1935H26.3869H27.9836V24.3226ZM34.3705 24.3226V26.4516H32.7738H31.177V24.3226V22.1935H32.7738H34.3705V24.3226ZM23.889 28.744L23.7257 28.9073V31.7742V34.6411L23.889 34.8044L24.0523 34.9677H26.3869H28.7215L28.8847 34.8044L29.0481 34.6411V31.7742V28.9073L28.8847 28.744L28.7215 28.5806H26.3869H24.0523L23.889 28.744ZM27.9836 31.7742V33.9032H26.3869H24.7902V31.7742V29.6452H26.3869H27.9836V31.7742ZM34.3705 31.2419V32.8387H33.4693C32.6012 32.8387 32.5621 32.8447 32.4048 33.002C32.2707 33.1361 32.2415 33.2312 32.2415 33.5343V33.9032H31.7093H31.177V31.7742V29.6452H32.7738H34.3705V31.2419ZM45.0153 41.3548V48.8065H43.1524H41.2896V48.0771C41.2896 47.1366 41.1503 46.729 40.6619 46.2406C39.819 45.3977 38.5023 45.3977 37.6594 46.2406C37.171 46.729 37.0317 47.1366 37.0317 48.0771V48.8065H35.1688H33.306V41.3548V33.9032H39.1606H45.0153V41.3548ZM34.5338 35.1311L34.3705 35.2943V37.0968V38.8992L34.5338 39.0625L34.6971 39.2258H36.4994H38.3018L38.4651 39.0625L38.6284 38.8992V37.0968V35.2943L38.4651 35.1311L38.3018 34.9677H36.4994H34.6971L34.5338 35.1311ZM39.8562 35.1311L39.6929 35.2943V37.0968V38.8992L39.8562 39.0625L40.0195 39.2258H41.8218H43.6242L43.7875 39.0625L43.9508 38.8992V37.0968V35.2943L43.7875 35.1311L43.6242 34.9677H41.8218H40.0195L39.8562 35.1311ZM23.889 36.1956L23.7257 36.3589V39.2258V42.0927L23.889 42.256L24.0523 42.4194H26.3869H28.7215L28.8847 42.256L29.0481 42.0927V39.2258V36.3589L28.8847 36.1956L28.7215 36.0323H26.3869H24.0523L23.889 36.1956ZM37.5639 37.0968V38.1613H36.4994H35.435V37.0968V36.0323H36.4994H37.5639V37.0968ZM42.8863 37.0968V38.1613H41.8218H40.7574V37.0968V36.0323H41.8218H42.8863V37.0968ZM27.9836 39.2258V41.3548H26.3869H24.7902V39.2258V37.0968H26.3869H27.9836V39.2258ZM32.2415 39.2258V41.3548H31.7093H31.177V39.2258V37.0968H31.7093H32.2415V39.2258ZM34.5338 40.4537L34.3705 40.6169V42.4194V44.2218L34.5338 44.3851L34.6971 44.5484H36.4994H38.3018L38.4651 44.3851L38.6284 44.2218V42.4194V40.6169L38.4651 40.4537L38.3018 40.2903H36.4994H34.6971L34.5338 40.4537ZM39.8562 40.4537L39.6929 40.6169V42.4194V44.2218L39.8562 44.3851L40.0195 44.5484H41.8218H43.6242L43.7875 44.3851L43.9508 44.2218V42.4194V40.6169L43.7875 40.4537L43.6242 40.2903H41.8218H40.0195L39.8562 40.4537ZM37.5639 42.4194V43.4839H36.4994H35.435V42.4194V41.3548H36.4994H37.5639V42.4194ZM42.8863 42.4194V43.4839H41.8218H40.7574V42.4194V41.3548H41.8218H42.8863V42.4194ZM50.1594 42.4907C51.1075 42.7539 51.6506 44.2347 51.2338 45.4199C50.5906 47.249 48.6321 46.9712 48.2688 44.9993C48.0767 43.957 48.5971 42.7967 49.3821 42.5168C49.6971 42.4045 49.8327 42.4 50.1594 42.4907ZM32.2415 46.6774V48.8065H29.8464H27.4514V46.6774V44.5484H29.8464H32.2415V46.6774ZM39.6289 46.8271C40.0746 47.0519 40.2251 47.3956 40.2251 48.1885V48.8065H39.1606H38.0962V48.1885C38.0962 47.3956 38.2466 47.0519 38.6924 46.8271C38.8557 46.7448 39.0664 46.6774 39.1606 46.6774C39.2549 46.6774 39.4656 46.7448 39.6289 46.8271ZM51.9344 50.4032V50.9355H36.4994H21.0645V50.4032V49.871H36.4994H51.9344V50.4032Z" fill="#FCFCFC"/>
</svg>
