<svg width="70" height="70" viewBox="0 0 70 70" fill="none" xmlns="http://www.w3.org/2000/svg">
<rect x="0.5" y="0.5" width="69" height="69" rx="34.5" stroke="#FCFCFC"/>
<path fill-rule="evenodd" clip-rule="evenodd" d="M26.3159 20.1773C26.1072 20.3565 26.1032 20.3757 26.0786 21.3116L26.0535 22.2636H24.0218H22.27C22.0894 22.2636 21.9148 22.3284 21.7778 22.4461C21.643 22.5621 21.5651 22.7308 21.5643 22.9086L21.5278 30.5486L21.49 38.4687L20.9169 38.7097C19.3836 39.3544 18.0879 40.654 17.4494 42.1875C17.0873 43.0571 16.965 43.8238 17.0084 44.9502C17.05 46.0292 17.1648 46.4507 17.7292 47.597C18.0344 48.2168 18.1869 48.4192 18.841 49.0716C19.258 49.4876 19.7973 49.9442 20.0396 50.0863C20.7156 50.4828 21.7665 50.848 22.4613 50.9279C22.8206 50.9692 28.1932 50.9991 35.327 50.9994L47.5758 51L47.7878 50.7968L48 50.5936V36.6497V23.0183C48 22.8182 47.9205 22.6262 47.7789 22.4847C47.6374 22.3431 47.4454 22.2636 47.2452 22.2636H45.5099H43.4619V21.428C43.4619 20.5442 43.3741 20.226 43.0879 20.0729C42.7616 19.8982 42.2706 20.0679 42.1152 20.4088C42.0627 20.5239 42.0248 20.9542 42.0248 21.4353V22.2636H34.7639H27.5029V21.4621C27.5029 20.5692 27.3977 20.2259 27.0798 20.0811C26.7874 19.9479 26.5478 19.978 26.3159 20.1773ZM26.0659 24.5777V24.9493C26.0659 25.2811 26.1327 25.6377 26.4133 25.8148C26.5677 25.9122 26.7312 25.9609 26.8427 25.9386C26.977 25.9118 27.172 25.8048 27.276 25.7009C27.4529 25.5241 27.4669 25.4537 27.492 24.6062L27.5189 23.7004H34.7718H42.0248V24.5689C42.0248 25.4185 42.0295 25.4426 42.2421 25.6805C42.5479 26.0226 42.9388 26.0226 43.2446 25.6805C43.4572 25.4426 43.4619 25.4185 43.4619 24.5689V23.7004H45.0502H46.6386V26.385V29.0696H34.7639H22.8892V26.385V23.7004H24.4775H26.0659V24.5777ZM46.6386 40.0726V49.6388H37.0993C29.4772 49.6388 27.5756 49.6198 27.6371 49.5443C28.6614 48.2883 29.285 47.1986 29.5521 46.198C29.7994 45.2716 29.7836 43.8561 29.5159 42.9616C28.7877 40.5286 26.9019 38.7895 24.4898 38.3264C24.1845 38.2678 23.7761 38.2194 23.5822 38.2188C23.3882 38.2183 23.1529 38.1973 23.0594 38.1722L22.8892 38.1266V34.3165V30.5064H34.7639H46.6386V40.0726ZM29.7992 33.793C29.5426 33.9727 29.433 34.3194 29.5463 34.593C29.7442 35.0707 29.3298 35.0438 36.4783 35.0438H42.9996L43.2102 34.8627C43.5102 34.6047 43.5102 34.1216 43.2102 33.8636L42.9996 33.6826H36.4783C30.883 33.6826 29.9345 33.6982 29.7992 33.793ZM32.0174 38.432C31.7226 38.7396 31.7353 39.1444 32.0491 39.4373L32.284 39.6567H37.6158H42.9476L43.2048 39.3996C43.5568 39.0476 43.5308 38.6772 43.1316 38.3539C42.9822 38.2329 42.5738 38.2231 37.5954 38.2215L32.2206 38.2199L32.0174 38.432ZM24.3862 39.7746C26.062 40.1134 27.4126 41.3005 28.045 42.9904C28.2666 43.5825 28.2833 43.6954 28.2855 44.6099C28.2877 45.4871 28.2663 45.6525 28.0876 46.1455C27.7823 46.9877 27.4554 47.5034 26.8274 48.1335C25.8781 49.0859 24.715 49.5632 23.343 49.5632C22.4591 49.5632 21.908 49.4315 21.0982 49.0269C20.0133 48.4847 19.1834 47.5647 18.6826 46.3492C18.4734 45.8414 18.4646 45.7707 18.4646 44.6099C18.4646 43.4038 18.4654 43.3982 18.719 42.8102C19.7303 40.4658 21.9429 39.2806 24.3862 39.7746ZM25.595 42.5275C25.4912 42.6091 24.9726 43.3408 24.4425 44.1534C23.9125 44.966 23.4567 45.6291 23.4298 45.6271C23.4028 45.6249 22.9894 45.0576 22.511 44.3663C22.0326 43.675 21.5145 42.9745 21.3596 42.8097C21.1051 42.5387 21.0514 42.5142 20.8018 42.5547C20.4485 42.612 20.2573 42.7874 20.1968 43.1098C20.1404 43.4106 20.0978 43.3387 21.65 45.557C22.9327 47.3899 23.0862 47.5764 23.3673 47.6419C23.7632 47.7343 24.197 47.1747 26.269 43.8989C26.74 43.1544 26.7722 42.9225 26.4499 42.6001C26.1871 42.3374 25.8709 42.3106 25.595 42.5275ZM34.3181 42.9766C33.9974 43.2761 33.992 43.6608 34.3043 43.973L34.5253 44.194H38.7589H42.9924L43.2271 43.9267C43.3562 43.7797 43.4619 43.5767 43.4619 43.4756C43.4619 43.3745 43.3562 43.1715 43.2271 43.0245L42.9924 42.7572H38.7727H34.553L34.3181 42.9766Z" fill="#FCFCFC"/>
</svg>
