<svg width="70" height="70" viewBox="0 0 70 70" fill="none" xmlns="http://www.w3.org/2000/svg">
<rect x="0.5" y="0.5" width="69" height="69" rx="34.5" stroke="#FCFCFC"/>
<path fill-rule="evenodd" clip-rule="evenodd" d="M33.1036 14.0935C30.9189 14.5829 29.1419 15.9551 28.1136 17.9471C27.9338 18.2956 27.6987 18.8716 27.5912 19.227L27.3959 19.8733L27.3896 22.8739C27.3835 25.7776 27.3886 25.8931 27.5461 26.4529C27.9285 27.8111 28.9087 29.3663 29.866 30.1336L30.3086 30.4883V32.312C30.3086 33.6869 30.2864 34.152 30.2183 34.2026C30.1686 34.2394 29.4288 34.4085 28.5742 34.5785C25.0368 35.282 22.8071 35.8002 22.2143 36.0566C20.8852 36.6315 19.5438 37.7035 18.8299 38.7613C18.4697 39.2948 18.0176 40.1905 17.8522 40.6978C17.6241 41.3979 16 49.9971 16 50.505C16 50.5326 16.0842 50.6552 16.1871 50.7775L16.3742 51H34.5373H52.7005L52.8503 50.8095C52.9392 50.6965 53.0001 50.5126 53 50.3576C52.9999 50.0666 52.1875 45.5605 51.6288 42.752C51.0967 40.0776 50.7002 39.2261 49.354 37.867C48.5854 37.091 47.9168 36.6132 47.0189 36.1981C46.4383 35.9297 44.2724 35.3982 40.751 34.66C39.7574 34.4517 38.9067 34.2709 38.8607 34.2582C38.7342 34.2234 38.6756 33.3332 38.7031 31.8656L38.7276 30.554L39.422 29.8772C40.4471 28.8781 41.066 27.8554 41.4512 26.5239C41.6142 25.9607 41.6182 25.8722 41.6176 22.8377L41.6171 19.7287L41.4115 19.1141C40.9937 17.8659 40.1634 16.564 39.2871 15.7833C38.5135 15.0941 37.4322 14.5118 36.3067 14.1783C35.6563 13.9855 33.8046 13.9365 33.1036 14.0935ZM35.2574 15.2836C36.0802 15.3636 36.5061 15.4858 37.1739 15.8337C38.2983 16.4194 39.2381 17.3525 39.7778 18.4194C40.088 19.0327 40.3252 19.7449 40.2458 19.8244C40.18 19.8903 29.0057 19.8872 28.8452 19.8213C28.7284 19.7733 28.7354 19.7234 28.9356 19.1747C29.2603 18.2844 29.6777 17.6357 30.3745 16.9386C31.0615 16.2513 31.7314 15.8159 32.5338 15.5354C33.4435 15.2174 34.0248 15.1637 35.2574 15.2836ZM39.9854 21.2051C40.1439 21.3055 39.0515 22.3618 38.5376 22.605C37.8693 22.9213 37.3699 22.9581 34.0883 22.9331L31.0674 22.91L30.6338 22.708C30.075 22.4476 28.858 21.2796 29.0616 21.1989C29.2512 21.1239 39.8666 21.1299 39.9854 21.2051ZM30.2065 23.9546C30.6036 24.1032 30.6998 24.1061 34.5978 24.0867L38.5831 24.0669L38.9805 23.8636C39.1991 23.7518 39.6167 23.4265 39.9086 23.1406L40.4392 22.6208L40.4034 24.2115C40.3626 26.0252 40.3087 26.3064 39.8073 27.3205C39.0855 28.7804 37.8399 29.8532 36.2705 30.3663C35.4877 30.6224 34.128 30.6869 33.3174 30.5064C31.3902 30.0774 29.7793 28.7298 29.0242 26.9148C28.7326 26.2141 28.6631 25.7286 28.612 24.0388L28.5697 22.6369L29.1851 23.2198C29.6417 23.6521 29.9053 23.8418 30.2065 23.9546ZM33.1625 31.7451C34.2485 31.9877 35.8992 31.8565 37.0068 31.4394L37.4629 31.2676V33.2847V35.3019L36.939 35.7142C35.9598 36.485 35.0671 36.7513 33.9396 36.6093C33.2407 36.5211 32.7258 36.2644 32.0827 35.683L31.55 35.2016L31.5436 33.239L31.5371 31.2764L32.0965 31.4542C32.4043 31.552 32.8839 31.6828 33.1625 31.7451ZM32.2614 37.3548C32.9289 37.6741 33.7183 37.8411 34.5512 37.8395C36.0401 37.8365 36.9772 37.4226 38.2722 36.1958C38.6222 35.8642 38.965 35.5993 39.0441 35.5993C39.1223 35.5993 39.3552 35.6384 39.5617 35.686L39.937 35.7727L39.9045 36.5717C39.8788 37.2035 39.836 37.454 39.7001 37.7684C39.5504 38.1147 37.3571 41.1316 36.9253 41.585L36.7679 41.7503L36.4266 41.4897C35.2724 40.6079 33.9081 40.584 32.7654 41.4257C32.3895 41.7025 32.2982 41.7419 32.2191 41.6613C32.1669 41.608 31.5367 40.7851 30.8187 39.8326C29.3142 37.8368 29.2327 37.6736 29.1725 36.5334L29.132 35.7684L29.63 35.6592L30.128 35.55L30.9245 36.3232C31.5576 36.9378 31.8318 37.1494 32.2614 37.3548ZM27.9291 36.8704C27.9644 37.6028 28.0007 37.7992 28.1712 38.1783C28.2882 38.4383 29.0275 39.5038 29.9443 40.7338L31.5167 42.8433L31.5551 43.7326C31.5918 44.5844 31.6048 44.6435 31.8618 45.1328C32.192 45.7615 32.6707 46.2212 33.3207 46.5334C33.5917 46.6637 33.8374 46.8028 33.8666 46.8425C33.8958 46.8823 33.9202 47.2158 33.9208 47.5837C33.9225 48.6135 33.9692 48.6372 35.9233 48.6009C37.1305 48.5784 37.1677 48.5731 37.356 48.3971L37.5494 48.2163L37.5254 45.5411L37.5014 42.8658L38.7089 41.2569C40.0567 39.4612 40.7155 38.5074 40.8991 38.0868C40.9784 37.9051 41.0391 37.5035 41.0696 36.9587C41.0957 36.4934 41.1323 36.098 41.1509 36.08C41.1905 36.0414 44.3141 36.7236 45.4122 37.0108C46.7288 37.3551 47.5762 37.8269 48.4522 38.7035C49.2943 39.5459 49.8835 40.58 50.1663 41.7118C50.4052 42.6678 51.2285 47.3014 51.1699 47.3601C51.1401 47.3899 49.5316 47.4158 47.5955 47.4176L44.0753 47.421L44.0391 44.6128L44.003 41.8046L43.8324 41.6664C43.5605 41.4462 43.132 41.513 42.9032 41.8111C42.8365 41.898 42.8146 42.8867 42.8129 45.8848L42.8106 49.8437L34.5181 49.8254L26.2256 49.807L26.1895 45.7696L26.1533 41.7323L25.9827 41.5941C25.7109 41.3739 25.2824 41.4407 25.0536 41.7388C24.988 41.8243 24.9649 42.5615 24.9633 44.6298L24.961 47.4061L21.417 47.3683C19.4677 47.3476 17.8568 47.3145 17.8371 47.2948C17.8002 47.2579 18.5742 42.9253 18.8181 41.8035C19.24 39.8625 20.7588 38.0377 22.5836 37.2794C22.8776 37.1573 23.5409 36.9562 24.0576 36.8325C25.9229 36.3861 27.7447 35.9796 27.8155 35.9939C27.8559 36.0021 27.9059 36.3879 27.9291 36.8704ZM35.1054 42.1957C35.4973 42.3131 36.0491 42.8513 36.1632 43.2274C36.2179 43.4077 36.2646 44.246 36.2872 45.4539L36.3235 47.3912L35.755 47.3699L35.1866 47.3487L35.1504 46.6942C35.1032 45.8383 35.009 45.6888 34.4478 45.5787C33.8606 45.4634 33.638 45.3646 33.3216 45.0785C32.927 44.7219 32.8126 44.4621 32.8092 43.9142C32.8055 43.3418 32.9251 42.9723 33.2243 42.6314C33.6469 42.1499 34.3835 41.9792 35.1054 42.1957ZM34.0993 43.3687C33.8507 43.6174 33.8636 43.9393 34.1331 44.209C34.644 44.7201 35.4051 44.1662 35.0664 43.5299C34.863 43.148 34.3975 43.0703 34.0993 43.3687ZM24.961 49.2025V49.7912L21.2504 49.756C19.2096 49.7366 17.5067 49.7003 17.4663 49.6753C17.4165 49.6445 17.4187 49.4837 17.4731 49.1794C17.5423 48.7926 17.5793 48.7219 17.7344 48.6787C17.8337 48.651 19.5004 48.6252 21.438 48.6212L24.961 48.614V49.2025ZM51.5393 49.1449C51.5934 49.417 51.6183 49.6591 51.5945 49.6829C51.5707 49.7067 49.8692 49.7281 47.8133 49.7304L44.0753 49.7347L44.0541 49.1737L44.033 48.6127L47.737 48.6314L51.4409 48.6501L51.5393 49.1449Z" fill="#FCFCFC"/>
</svg>
