<svg width="70" height="70" viewBox="0 0 70 70" fill="none" xmlns="http://www.w3.org/2000/svg">
<rect x="0.5" y="0.5" width="69" height="69" rx="34.5" stroke="#FCFCFC"/>
<path fill-rule="evenodd" clip-rule="evenodd" d="M26.492 21.1879C24.8915 21.4339 23.8914 21.6691 21.9898 22.2462L20.297 22.7597L19.3023 22.4877C17.0258 21.8653 16.6406 21.808 16.1419 22.0181C15.6173 22.2389 15.1933 22.8536 15.1934 23.3929C15.1934 23.5959 15.3769 24.4544 15.6013 25.3007L16.0092 26.8396C16.0092 26.8396 15.7662 27.7337 15.6392 28.3136C14.9303 31.5511 14.6473 34.4041 15.658 38.0757C15.797 38.5804 16.0604 39.354 16.0604 39.354L15.7577 40.6582C15.2677 42.7686 15.2566 42.9317 15.5644 43.4832C16.0808 44.4081 16.6074 44.4729 18.8863 43.8924L20.3201 43.5272L21.9402 44.0235C22.8312 44.2965 23.5806 44.5368 23.6057 44.5576C23.6306 44.5783 23.6122 45.0127 23.5646 45.5231C23.4838 46.3925 23.4601 46.4509 23.1891 46.4509C23.0301 46.4509 22.7607 46.5148 22.5908 46.5927C21.7854 46.9622 22.277 48.802 23.4096 49.6574L23.8045 49.9558L37.6694 49.9919C45.2951 50.0118 51.7737 49.9936 52.0664 49.9517C52.4596 49.8953 52.7433 49.7413 53.1533 49.3622C53.816 48.7491 54.0385 48.2674 54.0385 47.4457C54.0385 46.7585 53.7684 46.4509 53.1649 46.4509C52.8534 46.4509 52.8298 46.4105 52.7542 45.7438C52.459 43.1444 51.4785 40.6219 49.9051 38.4141C49.2655 37.5166 46.9542 35.1372 46.722 35.1372C46.6653 35.1372 46.5913 34.0996 46.5574 32.8314C46.5039 30.8262 46.4447 30.2944 46.103 28.752C45.6756 26.8221 45.6748 26.8921 46.1426 25.132C46.6692 23.1497 46.606 22.7014 45.5796 22.0862C44.7863 21.6108 43.2299 22.2954 43.2299 22.2954L41.3828 22.7628L40.0452 22.3745C38.4513 21.9116 36.8721 21.5874 34.5544 21.2473C32.4936 20.9447 28.2744 20.9138 26.492 21.1879ZM34.6155 22.9111C36.4365 23.1503 37.9787 23.4755 39.8547 24.0156L41.3681 24.4513L43.0791 24.0118C44.0201 23.77 44.8134 23.5956 44.8419 23.6243C44.8702 23.6529 44.6936 24.4064 44.4492 25.2987L44.005 26.921L44.3753 28.4774C44.749 30.0471 44.9988 31.978 44.9988 33.2962V34.0116L44.0392 33.5929C42.9258 33.1073 41.1206 32.5982 40.0986 32.4819L39.3874 32.4008L40.008 31.7091C41.0332 30.5663 41.1746 29.8685 40.5786 28.8923C40.1414 28.1762 39.5805 27.9907 37.9875 28.0354C36.7052 28.0713 36.5694 28.0987 36.1753 28.4014C35.6731 28.787 35.3484 29.4136 35.3484 29.9974C35.3484 30.4675 35.8335 31.3066 36.4314 31.8705C36.642 32.0691 36.8143 32.2691 36.8143 32.3147C36.8143 32.3605 36.5248 32.432 36.1709 32.474C34.5618 32.6644 32.0311 33.5423 31.2693 34.1744C30.984 34.4112 30.8286 34.6454 30.8286 34.8387C30.8286 35.1699 31.2175 35.6291 31.4979 35.6291C31.5973 35.6291 32.219 35.4098 32.8794 35.1417C35.0685 34.2532 36.7913 33.9507 38.952 34.0753C45.1642 34.4335 50.3471 39.4113 51.0537 45.6981L51.1382 46.4509H38.1336H25.129L25.2337 45.6209C25.4771 43.6903 26.3369 41.3998 27.4243 39.7849C27.711 39.3592 28.5945 38.3381 29.3875 37.5156C30.8883 35.9595 30.9313 35.8748 30.4857 35.3524C30.042 34.8324 29.2192 35.2513 27.7572 36.7411C26.3546 38.1707 24.8903 40.5518 24.3006 42.362C24.1849 42.717 24.028 43.0076 23.9519 43.0076C23.8758 43.0076 23.0314 42.7473 22.0757 42.4291L20.3378 41.8505L18.7188 42.2414C17.8283 42.4563 17.0737 42.6059 17.0418 42.5738C17.0099 42.5417 17.1517 41.7582 17.3568 40.8327L17.7298 39.1499L17.4452 38.3886C16.9317 37.0155 16.7412 35.633 16.7509 33.354C16.7607 31.0935 16.8555 30.2716 17.3467 28.189L17.6658 26.8363L17.2325 25.2068C16.9624 24.1909 16.8504 23.5774 16.935 23.5774C17.0098 23.5774 17.7991 23.772 18.6892 24.0097L20.3074 24.4419L21.6284 24.0681C23.2848 23.5994 26.0289 23.0271 27.4693 22.8499C28.0739 22.7755 28.7336 22.6917 28.9352 22.6637C29.6164 22.5693 33.2014 22.7253 34.6155 22.9111ZM24.4206 25.2211C23.731 25.9153 23.1908 27.5474 23.2892 28.6396C23.3632 29.4611 23.6564 30.1313 24.344 31.0512C25.1158 32.0835 25.1445 32.8745 24.4629 34.325C24.042 35.2207 24.0391 35.2593 24.3632 35.6739C24.8688 36.321 25.5359 35.9422 26.1462 34.6611C26.4087 34.1101 26.4866 33.7406 26.5283 32.8497C26.5892 31.5466 26.4067 30.995 25.5414 29.8658C25.047 29.2207 25.0261 29.1579 25.0264 28.3223C25.0266 27.6009 25.0956 27.2978 25.4278 26.5597C25.8553 25.6096 25.8381 25.3261 25.3368 25.056C24.9753 24.8613 24.735 24.9046 24.4206 25.2211ZM29.5544 25.3431C28.6676 26.2896 28.6585 27.7651 29.5321 28.9202C29.9829 29.5162 30.0238 29.7995 29.7389 30.3498C29.2809 31.2346 29.511 31.9398 30.258 31.9398C30.8966 31.9398 31.5615 30.8739 31.5615 29.8502C31.5615 29.1507 31.3572 28.5711 30.8959 27.9622C30.524 27.4713 30.5005 26.99 30.8142 26.2847C31.0755 25.6971 31.0338 25.3716 30.664 25.1108C30.2684 24.8319 29.9759 24.8931 29.5544 25.3431ZM50.8896 25.1216C50.5179 25.3837 50.5434 25.8014 50.998 26.8903C51.5267 28.1573 51.4696 28.8498 50.7561 29.825C50.0497 30.7906 49.7747 31.4218 49.6851 32.2837C49.5933 33.169 49.9183 34.3886 50.4859 35.2873C50.911 35.9604 51.3173 36.1291 51.7794 35.8242C52.1828 35.5582 52.1769 35.0674 51.7605 34.2415C51.5456 33.8152 51.4178 33.3311 51.3797 32.7988C51.3233 32.0113 51.3319 31.9834 51.879 31.1789C52.8335 29.7755 52.939 29.4914 52.939 28.3278C52.939 27.0961 52.6438 26.1856 51.9979 25.426C51.5412 24.8888 51.3097 24.8252 50.8896 25.1216ZM38.5657 29.824C39.4117 29.4223 39.4804 29.8658 38.7019 30.7036L38.1462 31.3017L37.6024 30.7164C36.8215 29.876 36.8619 29.4768 37.6939 29.8119C38.1275 29.9866 38.2207 29.9879 38.5657 29.824ZM51.7786 48.2956C51.4909 48.42 28.0128 48.7206 25.7591 48.3005C28.4466 48.2941 30.5324 48.2099 38.158 48.2029C45.9845 48.1955 51.9165 48.2359 51.7786 48.2956Z" fill="#FCFCFC"/>
</svg>
