<svg width="70" height="70" viewBox="0 0 70 70" fill="none" xmlns="http://www.w3.org/2000/svg">
<rect x="0.5" y="0.5" width="69" height="69" rx="34.5" stroke="#FCFCFC"/>
<path fill-rule="evenodd" clip-rule="evenodd" d="M27.9547 20.3547C26.5049 20.7489 25.7419 21.0788 24.4916 21.8514C21.5552 23.6665 19.4188 26.5705 18.3737 30.1677C18.029 31.3539 18.0019 31.6323 18 34.0048C17.9977 36.9261 18.1721 37.8484 19.1276 39.97C19.8574 41.5901 20.5288 42.6127 21.7109 43.9033C24.1605 46.5784 27.1328 47.9695 30.7031 48.1121C32.5848 48.1872 33.91 47.9699 35.6888 47.2946C36.2805 47.0698 36.7647 46.9487 36.7647 47.0253C36.7647 47.1018 36.6796 47.3371 36.5755 47.5483C35.8615 48.9963 35.8824 49.9576 36.6426 50.6231C37.1957 51.1074 38.0968 51.1279 38.6049 50.6677C38.927 50.3761 39.9663 48.0545 41.7526 43.6366L42.2827 42.3256L43.4618 42.4127C44.974 42.5244 46.3423 42.2204 47.8676 41.4342C48.7762 40.966 49.2399 40.5945 50.3072 39.4802C51.4759 38.26 51.7025 37.9368 52.311 36.623C53.1655 34.7782 53.4286 33.5692 53.4286 31.4868C53.4286 28.6491 52.6439 26.5892 50.8349 24.6787C49.1951 22.9468 47.6523 22.2803 45.2837 22.2803C43.7311 22.2803 42.3607 22.6399 41.0672 23.3868L40.3843 23.7811L39.3922 22.9656C37.6806 21.5585 35.8528 20.6479 33.869 20.2137C32.3364 19.8783 29.4543 19.947 27.9547 20.3547ZM32.8962 21.4383C33.4838 21.5224 34.0106 21.6374 34.0668 21.6938C34.182 21.8098 31.5743 22.9906 31.2008 22.9915C31.0682 22.9919 30.3233 22.7263 29.5454 22.4016C28.0083 21.7595 27.9822 21.6682 29.2727 21.4451C30.3178 21.2644 31.6624 21.2619 32.8962 21.4383ZM38.3738 23.8805C38.7705 24.1956 39.1294 24.5112 39.1715 24.582C39.2134 24.6526 38.9785 25.0111 38.6493 25.3784C37.843 26.2783 37.2295 27.2309 36.7557 28.3182C36.2805 29.4085 35.8085 31.1254 35.8085 31.7636C35.8085 32.0192 35.7517 32.2283 35.6823 32.2283C35.6128 32.2283 34.7202 31.5206 33.6985 30.6557L31.841 29.0829L31.8785 26.666L31.9157 24.2492L34.0329 23.3466L36.15 22.4442L36.9013 22.8759C37.3144 23.1133 37.977 23.5653 38.3738 23.8805ZM28.6035 23.493L30.4816 24.3022V26.695V29.0878L28.6398 30.658C27.6268 31.5218 26.7203 32.2283 26.6252 32.2283C26.3332 32.2283 22.223 30.7727 22.1391 30.6396C22.0957 30.5707 21.8856 29.6881 21.6721 28.6779L21.284 26.8414L21.6736 26.2564C22.2537 25.3855 24.0354 23.7046 25.0306 23.0894C26.1039 22.4259 26.1345 22.4293 28.6035 23.493ZM47.1858 23.987C49.0096 24.5732 50.4482 25.9334 51.3176 27.8939C51.8797 29.1614 52.0632 30.0846 52.0606 31.6313C52.058 33.2422 51.7819 34.4217 51.0392 35.9944C50.4571 37.2269 49.2052 38.911 48.8756 38.9047C48.788 38.903 46.1347 37.6996 42.9795 36.2303L37.2427 33.559L37.2024 32.6948C37.0914 30.3143 38.4298 27.432 40.5203 25.5494C42.3124 23.9358 45.038 23.2969 47.1858 23.987ZM20.5807 29.8735L20.8224 31.0715L20.086 32.0359C19.4458 32.8743 19.3437 32.9574 19.3043 32.6729C19.246 32.2508 19.6436 30.3931 19.9989 29.4268C20.1509 29.0136 20.2897 28.6755 20.3072 28.6755C20.3248 28.6755 20.4478 29.2147 20.5807 29.8735ZM33.0686 31.9038C33.9666 32.6685 34.7052 33.3582 34.71 33.4363C34.7147 33.5145 34.497 34.5536 34.226 35.7457L33.7333 37.9129H31.1674H28.6014L28.0947 35.7954C27.8159 34.6308 27.6089 33.5799 27.6346 33.4599C27.7051 33.1321 31.0312 30.3517 31.2491 30.4387C31.3518 30.4798 32.1706 31.139 33.0686 31.9038ZM24.0619 32.8647C25.1512 33.2376 26.0969 33.5948 26.1634 33.6582C26.273 33.7625 27.3265 38.0478 27.336 38.4278C27.3416 38.6532 25.3045 41.5296 25.11 41.5708C25.0218 41.5894 24.0894 41.461 23.0381 41.2853L21.1266 40.9658L20.6997 40.2229C20.1812 39.32 19.4723 37.1327 19.3524 36.0654L19.2646 35.2838L20.5202 33.6771C21.2108 32.7933 21.8446 32.0963 21.9286 32.1283C22.0126 32.1604 22.9726 32.4917 24.0619 32.8647ZM35.994 35.503C36.1387 36.2553 36.8831 38.0474 37.3383 38.7389C37.5794 39.1053 38.106 39.7489 38.5081 40.1689C38.9104 40.5889 39.2095 41.0142 39.1727 41.1136C39.0926 41.3311 37.194 41.69 37.0429 41.5164C36.6536 41.0693 34.989 38.5964 34.989 38.465C34.989 38.1034 35.7278 35.0706 35.8159 35.0706C35.8682 35.0706 35.9484 35.2652 35.994 35.503ZM42.9473 37.8044C45.8977 39.1799 47.4968 39.996 47.3864 40.0699C46.9516 40.3608 45.6725 40.772 44.8027 40.9003C41.645 41.3663 38.6993 39.3668 37.5867 36.0019L37.3267 35.2157L37.8312 35.435C38.1084 35.5555 40.4108 36.6217 42.9473 37.8044ZM34.9738 40.8845L36.0739 42.435L35.0494 44.3524C34.4858 45.4071 33.9319 46.3501 33.8186 46.4479C33.5734 46.6597 30.6084 46.8087 29.5032 46.6651L28.7649 46.5691L27.5221 44.4968L26.2791 42.4245L27.371 40.8793L28.4629 39.3341H31.1683H33.8738L34.9738 40.8845ZM40.8624 41.9396C40.8624 42.0996 39.3398 45.8355 38.0871 48.7492C37.7767 49.4712 37.4476 49.8204 37.4476 49.4279C37.4476 48.9065 40.4538 41.75 40.6729 41.75C40.7771 41.75 40.8624 41.8354 40.8624 41.9396ZM23.8421 42.8147C24.5101 42.9287 25.082 43.0484 25.1132 43.0808C25.2692 43.2431 26.7665 45.805 26.7284 45.8445C26.6597 45.916 25.2914 45.1709 24.6082 44.6898C23.9471 44.2245 22.5203 42.929 22.4456 42.7262C22.3873 42.568 22.4005 42.5689 23.8421 42.8147ZM38.327 43.2067C38.0097 44.2724 37.5951 44.8309 36.7898 45.2774C36.3418 45.526 35.9424 45.7292 35.9022 45.7292C35.8622 45.7292 36.1399 45.1485 36.5196 44.4388C37.1996 43.1675 37.4598 42.9144 38.1056 42.8959C38.3723 42.8884 38.4072 42.9374 38.327 43.2067Z" fill="#FCFCFC"/>
</svg>
