<svg width="54" height="54" viewBox="0 0 54 54" fill="none" xmlns="http://www.w3.org/2000/svg">
<path d="M49.9987 38.4451V44.7678C50.0011 45.3547 49.8778 45.9357 49.6365 46.4735C49.3953 47.0113 49.0415 47.4941 48.5978 47.8909C48.1541 48.2877 47.6303 48.5898 47.0599 48.7778C46.4895 48.9659 45.8851 49.0357 45.2854 48.9829C38.6325 48.2782 32.2419 46.0621 26.6271 42.5127C21.4033 39.2769 16.9744 34.9595 13.655 29.8673C10.0011 24.3691 7.72722 18.1092 7.01755 11.5947C6.96352 11.0119 7.03457 10.4245 7.22619 9.86992C7.4178 9.31534 7.72577 8.80573 8.13049 8.37354C8.53521 7.94134 9.02781 7.59603 9.57694 7.35959C10.1261 7.12315 10.7197 7.00076 11.32 7.0002H17.8061C18.8553 6.99014 19.8725 7.35233 20.6681 8.01928C21.4636 8.68623 21.9833 9.61242 22.1301 10.6252C22.4039 12.6486 22.9116 14.6353 23.6435 16.5475C23.9344 17.3018 23.9974 18.1216 23.825 18.9098C23.6525 19.698 23.2519 20.4214 22.6706 20.9944L19.9249 23.671C23.0026 28.9474 27.4843 33.3162 32.897 36.3164L35.6428 33.6398C36.2306 33.0732 36.9728 32.6827 37.7813 32.5146C38.5898 32.3465 39.4308 32.4079 40.2047 32.6914C42.1662 33.4049 44.2043 33.8998 46.28 34.1667C47.3302 34.3111 48.2894 34.8268 48.975 35.6157C49.6607 36.4045 50.025 37.4115 49.9987 38.4451Z" stroke="#FCFCFC" stroke-width="2" stroke-linecap="round" stroke-linejoin="round"/>
</svg>
