<svg width="70" height="70" viewBox="0 0 70 70" fill="none" xmlns="http://www.w3.org/2000/svg">
<rect x="0.5" y="0.5" width="69" height="69" rx="34.5" stroke="#FCFCFC"/>
<path fill-rule="evenodd" clip-rule="evenodd" d="M28.4283 17.0644C28.3364 17.1003 28.2237 17.1978 28.1779 17.2809C28.132 17.3641 27.4057 20.4497 26.5637 24.1379C25.7219 27.8262 25.0144 30.9023 24.9917 30.9738C24.969 31.0454 24.9023 31.1038 24.8435 31.1038C24.7846 31.1038 23.6592 31.802 22.3426 32.6553L19.9487 34.2068L18.4757 35.6496C16.716 37.3733 16.7408 37.3149 17.4602 38.042L17.9176 38.5045L18.7693 39.3207L19.9131 40.4293L21.057 41.5379L21.9066 42.3664L23.0504 43.475L24.1943 44.5836L25.044 45.4121L26.1878 46.5207L28.1856 48.4608L29.3042 49.5467L30.4227 50.6326L31.419 51.4581C31.419 51.4581 31.74 51.6546 32.0651 51.8949C32.3902 52.1351 32.9133 52.4914 33.2275 52.6866C33.5418 52.8818 33.8226 53.0589 33.8226 53.0589L34.9802 53.6124C34.9802 53.6124 35.2326 53.6775 35.4711 53.7572C36.37 54.0574 37.403 54.0814 38.0458 53.817C38.1931 53.7565 38.6468 53.3724 39.054 52.9636C39.9153 52.0989 39.9937 51.9204 39.9424 50.9381C39.9148 50.4093 39.8648 50.2138 39.635 49.7353C39.1141 48.6503 38.2068 47.5426 37.0241 46.5478C36.4101 46.0312 36.3613 45.9682 36.2128 45.5016C35.9713 44.7422 35.4511 43.1752 35.4511 43.1752L34.8703 43.3399L34.2895 43.5046L35.2954 46.6139L36.0775 47.2979C36.8954 48.0132 37.6749 48.8248 38.0556 49.3576C38.3622 49.7864 38.7343 50.5658 38.7344 50.7792C38.7345 50.9411 38.7123 50.9509 38.4475 50.9056C37.3051 50.7103 35.7935 49.9124 34.1432 48.6338C33.6776 48.2729 31.5679 46.2995 29.1258 43.9403C24.5685 39.5379 30.3291 45.0465 25.726 40.6892C25.0984 40.6071 24.7424 40.602 24.1148 40.5199C27.7626 44.4885 24.4678 41.0618 28.3467 44.8181C30.933 47.3228 32.8865 49.1523 33.378 49.5301C34.9823 50.7633 36.4559 51.5895 37.646 51.923L38.2718 52.0985L37.8898 52.4637L37.5078 52.829L36.9542 52.8225C36.2684 52.8145 35.4606 52.5556 34.4876 52.0317C32.5552 50.9913 32.0404 50.5397 24.8843 43.6091L18.4183 37.3469L18.9723 36.8082L19.5264 36.2694L21.3481 38.0323C23.2126 39.8366 22.0884 38.8884 24.1148 40.5199C24.7424 40.602 25.0984 40.6071 25.726 40.6892C24.7567 39.7345 23.1541 38.1637 22.1799 37.2137C20.6772 35.7483 20.4209 35.4668 20.4887 35.3565C20.5327 35.2852 21.4794 34.6327 22.5925 33.9067L24.6164 32.5868L24.9322 33.2468C25.8847 35.237 27.2715 36.9312 28.3939 37.4757C29.3694 37.9489 30.4536 37.9551 31.6756 37.4945C31.9972 37.3732 32.2647 37.2814 32.27 37.2903C32.3318 37.3957 32.8271 39.0178 32.8041 39.0401C32.787 39.0567 32.6101 39.0998 32.4112 39.1359C31.7639 39.2533 31.5196 39.5341 31.6888 39.9662C31.81 40.2756 32.0685 40.3541 32.6907 40.2706C33.1971 40.2027 33.3015 40.2288 33.3015 40.4231C33.3015 40.4349 33.0945 40.484 32.8415 40.5323C32.5024 40.5971 32.3502 40.6666 32.2624 40.7968C32.0884 41.0545 32.1506 41.4222 32.3984 41.601C32.5879 41.7377 32.6476 41.743 33.1225 41.6667C33.514 41.6037 33.6537 41.6045 33.6954 41.6701C33.7841 41.8095 33.7113 41.8526 33.2961 41.9061C32.6709 41.9866 32.4068 42.3353 32.6228 42.7953C32.7486 43.0636 33.0475 43.1613 33.4597 43.069C34.097 42.9265 34.2895 43.5046 34.2895 43.5046L34.8703 43.3399L35.4511 43.1752C35.4511 43.1752 35.3119 42.7278 35.4472 42.678C35.9858 42.4796 35.7352 41.5781 35.1414 41.5781C34.8577 41.5781 34.8416 41.4509 35.0996 41.2466C35.5566 40.8848 35.3256 40.2356 34.7341 40.2194C34.5137 40.2133 34.4493 40.1812 34.4493 40.0777C34.4493 40.0041 34.501 39.9438 34.5641 39.9438C34.766 39.9438 34.985 39.6607 34.985 39.3996C34.985 39.0586 34.7225 38.8298 34.3296 38.8285L34.0285 38.8274L33.6339 37.598L33.2393 36.3687L34.6772 33.0392C36.3697 29.1198 36.2462 29.2198 36.2462 29.2198L35.3004 28.7824C35.3004 28.7824 34.5414 30.3065 33.6254 32.441L32.1112 35.9695L31.5394 36.2486C29.7826 37.1059 28.5541 36.6457 27.1007 34.5856C26.5498 33.8048 25.8841 32.5542 25.9267 32.3802C25.9435 32.3115 26.3861 30.3704 26.9104 28.0668C27.4346 25.7631 27.8773 23.8649 27.8942 23.8485C27.911 23.8322 28.222 23.9025 28.5853 24.0046C29.8371 24.3568 31.5102 24.7292 33.9864 25.207C35.3522 25.4705 36.4801 25.6963 36.4929 25.7087C36.5057 25.7212 36.3611 26.0908 36.1715 26.5302C35.9819 26.9696 35.3004 28.7824 35.3004 28.7824L36.2462 29.2198C36.2462 29.2198 41.2596 17.85 41.2596 17.5739C41.2596 17.098 40.6068 16.8366 40.2735 17.179C40.1959 17.2587 39.7253 18.2766 39.2277 19.441C38.7301 20.6054 38.3145 21.5698 38.3043 21.5841C38.2864 21.609 29.0271 19.4474 28.9315 19.3959C28.9058 19.3822 28.9653 19.0273 29.0637 18.6074C29.3035 17.5842 29.3003 17.339 29.0443 17.1436C28.828 16.9784 28.6926 16.961 28.4283 17.0644ZM33.3015 21.6402C35.6373 22.1885 37.606 22.6618 37.6764 22.692C37.7894 22.7403 37.7591 22.8517 37.42 23.6381C37.2085 24.1284 37.0258 24.5396 37.0139 24.5519C36.9803 24.5865 33.1923 23.8668 31.6563 23.5338C30.0691 23.1898 28.3222 22.734 28.2236 22.6383C28.1844 22.6002 28.2421 22.1875 28.361 21.6568C28.6292 20.4586 28.5968 20.53 28.8449 20.5913C28.9603 20.6198 30.9657 21.0918 33.3015 21.6402ZM44.19 27.6095C42.115 27.964 40.3329 28.8424 38.8104 30.261C37.3182 31.6514 36.3486 33.3294 35.8552 35.3753C35.6346 36.2901 35.6537 38.6782 35.8892 39.6358C36.352 41.5172 37.2811 43.1432 38.6556 44.4775C40.1434 45.922 42.0816 46.9079 44.1291 47.2618C45.0654 47.4236 46.68 47.4232 47.6491 47.2609C50.8623 46.7228 53.6277 44.7364 55.0877 41.9175C56.5052 39.1808 56.5406 35.8807 55.1821 33.1343C53.9505 30.6444 51.6629 28.7292 48.9499 27.9168C47.4291 27.4615 45.707 27.3502 44.19 27.6095ZM47.2282 28.7306C48.2596 28.8906 48.2473 28.8831 48.4442 29.4765C48.5408 29.7677 48.8029 30.3605 49.0268 30.7938L49.4338 31.5818L48.9691 32.2157C48.7134 32.5643 48.4264 32.9527 48.3311 33.0787L48.1579 33.3079L47.5592 33.2127C46.7166 33.0786 45.0276 33.0855 44.1833 33.2263L43.4835 33.343L43.2608 33.0963C43.1383 32.9605 42.8829 32.668 42.6933 32.4461L42.3486 32.0427L42.6062 31.4583C42.9 30.792 43.2195 29.8072 43.2955 29.3338C43.336 29.0818 43.389 28.9968 43.5408 28.9408C44.2107 28.6935 46.2422 28.5778 47.2282 28.7306ZM41.7743 30.2563C41.6359 30.6612 41.4373 31.1421 41.3332 31.325C41.1507 31.6456 41.123 31.6623 40.5704 31.7877C40.0479 31.9063 38.8037 32.073 38.7507 32.0316C38.695 31.9881 40.1231 30.6454 40.5327 30.3559C40.9567 30.0563 41.9607 29.4783 42.0063 29.5076C42.0172 29.5146 41.9128 29.8515 41.7743 30.2563ZM51.2144 30.3059C51.4499 30.4792 51.8114 30.7629 52.0179 30.9363L52.3934 31.2514L52.0873 31.2524C51.9189 31.2529 51.5106 31.2134 51.18 31.1645C50.5963 31.0783 50.573 31.0669 50.3824 30.7741C50.1952 30.4865 49.7534 29.5947 49.7534 29.5043C49.7534 29.4238 50.7856 29.9902 51.2144 30.3059ZM52.5501 32.4395L53.3957 32.441L53.7015 32.9424C54.3536 34.0117 54.8112 35.3195 54.9182 36.419L54.9684 36.9353L54.6724 37.0958C54.25 37.3247 53.2303 38.0702 52.7437 38.5057L52.3288 38.877L51.5081 38.5784L50.6873 38.2798L50.6381 37.9047C50.5149 36.9648 49.9926 35.4836 49.4215 34.4546L49.158 33.9798L49.6203 33.3404C49.8746 32.9887 50.1618 32.5967 50.2586 32.4693L50.4346 32.2375L51.0696 32.3378C51.4189 32.3929 52.0851 32.4387 52.5501 32.4395ZM42.0098 33.4727L42.5517 34.096L42.2997 34.587C41.8052 35.5508 41.3614 36.9772 41.2221 38.0507L41.1737 38.4233L40.2263 38.7851L39.2789 39.147L38.7069 38.6354C38.3923 38.354 37.8442 37.94 37.4889 37.7153L36.8429 37.3067L36.8747 36.8981C36.9597 35.8029 37.2281 34.772 37.6991 33.7308L37.9053 33.2749L38.6451 33.2247C39.4518 33.1699 40.628 33.0034 40.9918 32.8925C41.1181 32.854 41.2768 32.8286 41.3447 32.836C41.4125 32.8435 41.7119 33.13 42.0098 33.4727ZM47.496 34.3971L48.0317 34.487L48.2769 34.885C48.811 35.752 49.4473 37.5639 49.4473 38.2178C49.4473 38.3853 49.3767 38.5711 49.2533 38.7281C48.8182 39.2819 46.9514 40.6373 46.2137 40.9349C45.9356 41.0472 45.9085 41.0437 45.3855 40.8276C44.3736 40.4096 43.3135 39.6738 42.7026 38.9654C42.3904 38.6034 42.3871 38.5934 42.4344 38.1541C42.5562 37.0225 43.3637 34.7669 43.7257 34.5469C44.1112 34.3127 46.4414 34.2201 47.496 34.3971ZM54.8335 38.9533C54.7738 39.2869 54.6382 39.8218 54.5319 40.1419C54.3301 40.7502 53.6726 42.0981 53.5777 42.0981C53.5142 42.0981 53.2262 40.7573 53.1684 40.1922L53.1292 39.8093L53.5647 39.3964C53.9437 39.0372 54.8946 38.2968 54.9295 38.3337C54.9364 38.3408 54.8931 38.6197 54.8335 38.9533ZM37.5716 39.2294C37.8535 39.4494 38.1838 39.7322 38.3058 39.8579C38.5161 40.0746 38.5252 40.111 38.4819 40.5618C38.4223 41.1809 38.2615 42.0238 38.2029 42.0238C38.1508 42.0238 37.7538 41.2799 37.51 40.7253C37.3643 40.3936 36.9745 39.0621 36.9745 38.8957C36.9745 38.7798 37.0481 38.8209 37.5716 39.2294ZM51.169 39.706L51.9342 39.9877L51.9863 40.4962C52.0508 41.1251 52.2359 41.9515 52.4847 42.7206L52.6741 43.306L52.3042 43.6738C52.1007 43.8761 51.6637 44.2406 51.3329 44.4839C50.621 45.0075 49.1702 45.7233 49.0287 45.6207C48.3068 45.0975 47.6493 44.6738 47.1355 44.4008L46.506 44.0665L46.5271 43.1008C46.5413 42.4543 46.5784 42.1165 46.6396 42.0786C46.6897 42.0475 47.0323 41.8469 47.4008 41.6329C48.3257 41.0957 48.8902 40.6831 49.6236 40.0079C49.9686 39.6904 50.2852 39.4292 50.3273 39.4275C50.3694 39.4257 50.7482 39.551 51.169 39.706ZM43.5269 41.1822C43.8951 41.4152 44.4568 41.7157 44.775 41.85C45.0932 41.9843 45.3448 42.1118 45.3343 42.1332C45.3239 42.1548 45.3152 42.5865 45.3152 43.0927V44.013L44.7222 44.2864C44.078 44.5834 43.3031 45.0371 42.8442 45.3862L42.554 45.607L42.079 45.4024C41.3394 45.0837 40.4052 44.4617 39.7404 43.8452L39.1334 43.2821L39.2431 42.9316C39.4277 42.3413 39.5122 41.9474 39.6431 41.0684L39.7687 40.2246L40.67 39.8756L41.5713 39.5267L42.2144 40.1426C42.5681 40.4814 43.1587 40.9492 43.5269 41.1822ZM46.324 45.2992C46.8124 45.5386 47.6296 46.0419 47.5909 46.0794C47.5785 46.0913 47.1928 46.1382 46.7336 46.1835C46.1295 46.2432 45.6702 46.2438 45.0723 46.1858C43.9977 46.0815 43.9378 46.0577 44.2589 45.8626C44.4744 45.7316 45.7711 45.081 45.8339 45.0724C45.8457 45.0709 46.0662 45.1729 46.324 45.2992Z" fill="#FCFCFC"/>
</svg>
