<?xml version="1.0" encoding="utf-8"?><svg viewBox="0 0 87 85" xmlns="http://www.w3.org/2000/svg" xmlns:xlink="http://www.w3.org/1999/xlink"><style>:root>svg{display:none}:root>svg:target{display:block}</style><svg viewBox="0 0 32 32" id="close" xmlns="http://www.w3.org/2000/svg"><path d="M.086 28.25L28.336 0l3.535 3.536-28.25 28.25z"/><path d="M3.535.173l28.077 28.076-3.536 3.536L0 3.709z"/></svg><svg viewBox="0 0 87 85" id="logo" xmlns="http://www.w3.org/2000/svg"><g filter="url(#bfilter0_d_701_3005)"><path fill-rule="evenodd" clip-rule="evenodd" d="M55.648 29.179c-.086-.122-.168-.248-.26-.365-.171-.22-.701-.262-.948-.324-.209-.051-.42-.102-.626-.166-.232-.073-.307-.162-.488-.307-.229-.182-.878-.257-.86.203l.028.733-1.06.366c-.336.116-.821.218-1.006.565l-2.373-3.725-1.228-1.89c-.011-.016.116-.233.116-.278-.001-.17-.137-.344-.187-.507-.079-.253-.14-.513-.2-.77a5.985 5.985 0 01-.148-.807c-.01-.1-.035-.425.054-.49.187-.135.29.353.46.414.228.085.247-.036.428.126.098.088.473.782.621.732l.754.988.558.197s.251.17-.167.395c0 0-.447.48.223.339 0 0 .81-.113.782-.339 0 0 .614-.592-.196-1.185a4.252 4.252 0 01-.251-.226c-.335-.564-1.2-1.58-1.2-1.58l-.252-.62c-.298-.613-.51-1.279-.904-1.841-.192-.275-.43-.488-.688-.697a5.546 5.546 0 00-.867-.597c-.235-.124-.527-.214-.673-.454-.092-.152-.285-.139-.372-.294-.043-.076-.137-.482-.069-.547 0 0 .67-.65-.056-1.185 0 0 .894-1.75-1.507-1.806 0 0-2.234.846-1.061 2.172 0 0-.056 1.017.279.932l.362.93-.586.198c.088-.029-.388-.541-.435-.575-.311-.22-.659-.38-.96-.619-.14-.111-.445-.293-.521-.46-.134-.294.177-.622.208-.904.027-.245-.123-.425-.262-.606-.083-.11-.148-.364-.256-.435-.094-.062-.49-.05-.569.045-.094.113-.03.342-.127.486-.132.2-.174.233-.148.472.015.144.037.287.07.428.017.076.03.198.077.264.07.094.159.124.224.23.065.103.12.213.185.317.11.17.238.333.34.51.243.42.482.847.723 1.27l.27.456c.154.256.205.286.492.322.366.045.364.43.309.701-.06.295-.144.576-.144.879.001.485.134.966.134 1.451l.279 2.427c.102.931.115 1.906-.235 2.79-.18.454-.46.766-.833 1.068-.505.407-.777.91-1.086 1.464-.28.503-.783.918-.887 1.507-.059.33.049.64.112.961.245 1.243.205 2.563.149 3.824 0 .01-.038.481-.095.434-.007-.006-.356.232-.368.239-.008.002.002-.013.003-.014-.25.133-.534.315-.814.373-.44.092-1.005.127-1.387.388-.539.368.2.691.51.808 1.078.404 2.28.272 3.423.35 0 0 .614-.169.28-1.297-.01-.455-.01-.91.013-1.364.026-.514.168-1 .333-1.483.169-.495.173-.765.14-1.277-.008-.131-.236-1.407-.234-1.407.198-.126.48-.414.72-.417.385-.004.52.442.848.214.241-.168.37-.499.576-.706.556-.56 1.217-1.044 1.823-1.548.495.226.93.563 1.357.898.182.144.34.318.525.458.09.069.198.164.311.19.136.032.184-.076.304-.07.385.019.66.392.907.646.323.333.7.607 1.059.899 1.17.955 2.197-.446 3.014-1.126.348-.29.939-.838 1.436-.67.323.109.47.041.743-.15l.892.113s.838-.113.14-1.044zm-32.634 30.8h2.346v.698h-.793v4.185h-.76v-4.185h-.793v-.697zm4.973 4.883a2.607 2.607 0 00-.027-.091.695.695 0 01-.025-.105 1.298 1.298 0 01-.013-.16 7.411 7.411 0 01-.004-.244v-.767c0-.228-.04-.389-.117-.481-.078-.094-.205-.14-.38-.14h-.262v1.988H26.4V59.98h1.145c.396 0 .682.093.86.279.177.186.265.467.265.844v.383c0 .502-.165.832-.497.99.194.08.326.209.397.388.071.178.107.396.107.652v.753c0 .12.005.226.014.317.01.09.032.183.069.276h-.773zm-.828-4.185v1.5h.297a.474.474 0 00.334-.112c.08-.074.121-.21.121-.404v-.482c0-.176-.03-.304-.093-.383-.062-.08-.16-.119-.293-.119h-.366zm5.29 4.185h-.765l-.132-.886h-.931l-.131.886h-.697l.773-4.882h1.11l.773 4.882zm-1.731-1.549h.73l-.365-2.468-.365 2.468zm2.806-3.333h.759v4.882h-.76V59.98zm2.6 1.346v3.536h-.684V59.98h.952l.78 2.922V59.98h.676v4.882h-.78l-.945-3.536zm2.874-1.346h.76v4.882h-.76V59.98zm2.6 1.346v3.536h-.683V59.98h.952l.78 2.922V59.98h.676v4.882h-.78l-.945-3.536zm4.055.823h1.063v1.548c0 .395-.096.697-.287.906-.19.21-.472.314-.845.314s-.654-.105-.845-.317c-.191-.212-.287-.515-.287-.91v-2.538c0-.396.096-.7.287-.91.19-.212.472-.318.845-.318s.654.106.845.317c.191.212.287.515.287.91v.475h-.718v-.523c0-.177-.036-.301-.107-.373a.385.385 0 00-.286-.108.385.385 0 00-.287.108c-.07.072-.107.197-.107.374v2.64c0 .177.036.302.107.371.072.07.167.105.287.105.12 0 .215-.035.286-.105.071-.07.107-.193.107-.37v-.899h-.345v-.697zm7.12.9v.648c0 .395-.096.697-.287.906-.19.21-.473.314-.845.314-.373 0-.655-.105-.846-.317-.19-.212-.286-.515-.286-.91v-2.538c0-.396.096-.7.286-.91.191-.212.473-.318.846-.318.372 0 .654.106.845.317.19.212.286.515.286.91v.475h-.717v-.523c0-.177-.036-.301-.107-.373a.385.385 0 00-.287-.108.385.385 0 00-.286.108c-.071.072-.107.197-.107.374v2.64c0 .177.036.302.107.371.071.07.167.105.286.105.12 0 .215-.035.287-.105.071-.07.107-.193.107-.37v-.697h.717zm3.558 1.813h-.766l-.131-.886h-.932l-.13.886h-.698l.773-4.882h1.111l.773 4.882zm-1.732-1.549h.731l-.365-2.468-.366 2.468zm4.42.133l.518-3.466h1.056v4.882h-.718V61.36l-.524 3.5h-.718l-.566-3.452v3.453h-.662V59.98h1.056l.559 3.466zm3.835-3.466c.382 0 .666.102.852.307.187.204.28.504.28.9v.634c0 .395-.093.695-.28.9-.186.204-.47.306-.852.306h-.358v1.835h-.76V59.98h1.118zm-.358.697v1.653h.358c.12 0 .212-.032.276-.098.065-.065.097-.186.097-.362v-.732c0-.177-.032-.298-.097-.363-.064-.065-.156-.098-.276-.098h-.358zm-55.013-6.67c-1.236.04-2.151-.166-2.748-.62-.596-.455-.83-1.106-.7-1.953.15-.96.743-1.684 1.78-2.17 1.036-.485 2.307-.702 3.81-.65.28-.651.535-1.209.766-1.674.231-.465.505-.948.822-1.449a5.971 5.971 0 011.055-1.27c.387-.346.8-.618 1.241-.814.763-.34 1.525-.426 2.288-.256.763.17 1.24.55 1.434 1.14.333.98.193 2.603-.419 4.865.913.031 1.563-.046 1.95-.232.15-.021.287.075.41.286.124.212.149.36.073.442-.333.258-.69.436-1.071.535-.382.098-.932.183-1.652.255-.118.455-.381 1.53-.79 3.223-.3.248-.867.365-1.7.35-.832-.016-1.27-.153-1.313-.412.033-.144.094-.39.186-.736.091-.346.206-.772.346-1.278.14-.506.242-.889.306-1.147a27.022 27.022 0 00-1.675-.046c-.29.65-.546 1.162-.766 1.534-.22.372-.5.73-.838 1.077-.338.346-.73.594-1.176.744-.446.15-.986.235-1.62.255zm6.445-5.052c.462-1.509.741-2.702.838-3.58.021-.227-.06-.351-.242-.372-.215-.02-.403.114-.564.403a24.382 24.382 0 00-1.53 3.471l1.498.078zm-6.43 3.393c.592-.041 1.107-.749 1.548-2.123-.355-.02-.744.073-1.169.28-.424.206-.695.495-.813.867a.96.96 0 00-.049.666c.065.217.226.32.484.31zm11.699-5.02c.269-.176.787-.225 1.555-.148.768.078 1.233.256 1.394.535-.086.34-.21.772-.37 1.294-.162.522-.29.95-.388 1.286-.096.336-.182.674-.258 1.015-.075.34-.096.597-.064.767.032.17.118.256.258.256a.64.64 0 00.532-.28c-.14-.154-.148-.363-.025-.627.124-.263.336-.385.637-.364.505-.96.849-2.2 1.031-3.719.215-.217.715-.294 1.499-.232.784.062 1.267.248 1.45.557-.258 2.098-.902 3.606-1.934 4.525 1.203.186 2.16-.263 2.869-1.348.075-.082.225-.052.45.093.226.145.323.258.29.341a5.045 5.045 0 01-.66.93 2.439 2.439 0 01-.773.58c-.28.13-.524.233-.734.31-.209.078-.48.115-.813.11a13.389 13.389 0 01-.701-.024c-.134-.01-.363-.036-.685-.077a2.854 2.854 0 01-.258-.031 5.873 5.873 0 01-2.997.914c-.741.01-1.308-.122-1.7-.395-.392-.274-.599-.685-.62-1.232-.022-.95.317-2.63 1.015-5.036zm12.649-.109a8.077 8.077 0 012.481.109c.849.165 1.51.485 1.982.96.065.248-.053.538-.354.868-.301.33-.543.486-.725.465-.613-.486-1.424-.718-2.433-.697-.495 0-.946.175-1.354.526a2.87 2.87 0 00-.87 1.349c-.322 1.043-.258 1.544.193 1.503.29-.031.6-.326.927-.883.327-.558.604-1.132.83-1.72.3-.145.749-.15 1.345-.016s.97.3 1.12.496a28.14 28.14 0 00-.322.914c-.226.806-.124 1.209.306 1.209.354-.01.712-.15 1.071-.419.36-.268.664-.61.91-1.022.065-.062.16-.07.283-.024.123.047.239.122.346.225.108.103.15.176.13.217-1.14 1.86-2.584 2.769-4.335 2.727-1.042-.03-1.435-.64-1.177-1.828-.182.34-.368.63-.556.868-.188.237-.472.457-.853.658a2.735 2.735 0 01-1.298.302c-1.654 0-2.406-.826-2.256-2.479a4.059 4.059 0 01.91-2.24c.533-.655 1.12-1.143 1.765-1.463a6.07 6.07 0 011.934-.605zm11.537-.062c.548.01.926.196 1.136.558.21.361.234.852.072 1.472-.032.145-.137.49-.314 1.038s-.293.95-.346 1.209c-.065.269-.065.48 0 .635.064.155.156.233.274.233.258-.01.545-.155.862-.434.317-.28.599-.615.846-1.007.064-.104.215-.08.45.07.237.15.34.265.307.348-1.063 1.767-2.369 2.676-3.916 2.727-.912.031-1.511-.17-1.796-.604-.285-.434-.325-1.023-.121-1.767.258-.93.435-1.596.532-1.998.096-.342.027-.512-.21-.512-.236 0-.5.109-.79.325-.096.341-.461 1.741-1.095 4.2-.043.155-.333.269-.87.34a5.592 5.592 0 01-1.555 0c-.5-.072-.722-.206-.669-.402.172-.63.446-1.65.822-3.06.376-1.41.66-2.451.854-3.123.29-.186.811-.245 1.563-.178.752.067 1.214.235 1.386.504l-.161.51c1.063-.733 1.976-1.094 2.739-1.084zm11.956 3.688c.054-.052.14-.054.258-.008.118.047.233.122.346.225.113.103.159.176.137.217-.644 1.074-1.265 1.924-1.86 2.55-.597.624-1.244 1.07-1.942 1.34a8.27 8.27 0 01-.436 1.208c-.15.32-.37.661-.66 1.023-.29.362-.674.633-1.152.814-.478.18-1.045.266-1.7.255-.784-.01-1.389-.17-1.813-.48-.424-.31-.604-.785-.54-1.426.15-1.343 1.52-2.154 4.11-2.433.042-.144.125-.416.249-.813.123-.398.217-.69.282-.876-.29.465-.634.84-1.031 1.124-.398.284-.935.431-1.612.441-.891.01-1.52-.268-1.885-.836-.365-.569-.465-1.232-.298-1.992a4.748 4.748 0 011.055-2.084c.43-.506.964-.925 1.604-1.255.639-.33 1.26-.532 1.86-.604a8.317 8.317 0 012.418.077c.837.145 1.541.47 2.11.976.087.197-.018.47-.314.822-.295.35-.545.521-.749.51-.698-.526-1.536-.764-2.514-.712a2.11 2.11 0 00-1.32.504 2.904 2.904 0 00-.887 1.278c-.161.496-.228.878-.202 1.147.027.268.11.423.25.465.14.041.322-.018.548-.178.225-.16.462-.458.709-.891.365-.672.607-1.178.725-1.52.247-.175.72-.175 1.418 0 .698.176 1.096.373 1.192.59-.14.485-.303 1.064-.491 1.735-.188.672-.363 1.271-.524 1.798.838-.486 1.724-1.483 2.659-2.99zm-5.978 5.517c.14-.33.242-.656.306-.977-.741.125-1.187.434-1.337.93-.086.28-.006.46.241.543.258.082.484-.01.677-.28.043-.061.08-.134.113-.216zm10.441-9.143a8.077 8.077 0 012.482.109c.848.165 1.509.485 1.982.96.064.248-.054.538-.355.868-.3.33-.542.486-.725.465-.612-.486-1.423-.718-2.433-.697-.494 0-.945.175-1.353.526a2.87 2.87 0 00-.87 1.349c-.323 1.043-.258 1.544.193 1.503.29-.031.599-.326.926-.883a11.56 11.56 0 00.83-1.72c.3-.145.75-.15 1.346-.016.596.134.969.3 1.12.496-.087.227-.194.532-.323.914-.225.806-.123 1.209.306 1.209.355-.01.712-.15 1.072-.419.36-.268.663-.61.91-1.022.065-.062.159-.07.282-.024.124.047.24.122.347.225.107.103.15.176.129.217-1.14 1.86-2.584 2.769-4.335 2.727-1.042-.03-1.434-.64-1.176-1.828-.183.34-.368.63-.556.868-.188.237-.473.457-.854.658a2.735 2.735 0 01-1.297.302c-1.655 0-2.406-.826-2.256-2.479a4.059 4.059 0 01.91-2.24c.532-.655 1.12-1.143 1.765-1.463a6.067 6.067 0 011.933-.605zm5.672 4.355c-.075.082-.18.113-.314.093a.702.702 0 01-.37-.187c-.113-.103-.143-.201-.09-.294.699-1.105 1.21-2.164 1.531-3.177-.526-.764-.569-1.436-.128-2.014.322-.413.73-.62 1.224-.62.526 0 .865.238 1.015.713.065.217.081.475.049.775.107.093.308.248.604.465.295.216.513.382.652.495.14.114.31.274.508.48.199.207.325.39.379.55.053.161.072.35.056.566-.016.218-.1.434-.25.651-.386.558-.642 1.085-.765 1.58-.124.497-.056.786.201.869.366.113.806.02 1.322-.28.515-.299.961-.764 1.337-1.394.065-.093.218-.062.46.093.241.155.34.269.297.341-.214.33-.384.581-.507.752-.124.17-.333.408-.629.712a3.718 3.718 0 01-.87.69 5.226 5.226 0 01-1.112.418 5.28 5.28 0 01-1.49.17c-1.17-.02-1.877-.443-2.119-1.27-.242-.826.035-1.911.83-3.254.247-.413.14-.733-.322-.96a12.513 12.513 0 01-1.499 3.037zm13.696-8.167c.14-.124.446-.196.919-.217.472-.02.93.02 1.37.124.44.103.687.253.74.45-.053.206-.38 1.301-.982 3.285-.602 1.983-.956 3.342-1.064 4.075-.064.393-.067.697-.008.914.06.217.186.31.379.28.258-.042.543-.192.854-.45.311-.258.596-.594.854-1.007.064-.062.158-.07.282-.024.123.047.242.122.355.225.112.103.153.176.12.217-1.106 1.818-2.46 2.727-4.06 2.727-1.032 0-1.574-.604-1.628-1.813a7.043 7.043 0 01-.45.651c-.14.176-.323.362-.549.558a2.342 2.342 0 01-.797.45 3.189 3.189 0 01-1.023.154c-.946.01-1.588-.286-1.926-.89-.338-.605-.384-1.33-.137-2.178.344-1.209 1.042-2.146 2.095-2.812 1.052-.667 2.256-.99 3.61-.969.182-.64.389-1.382.62-2.224.23-.841.373-1.35.426-1.526zm-1.53 5.486c-.645.082-1.182.413-1.612.991a3.737 3.737 0 00-.45.86c-.14.357-.208.698-.202 1.023.005.326.12.509.346.55.344.062.69-.242 1.04-.914.349-.672.641-1.508.878-2.51zM16.627 36.95l.02-.454.015-.323c.008-.109.025-.22.037-.333l.078-.7c.038-.482.137-.983.22-1.503.072-.522.208-1.05.32-1.592.102-.543.272-1.08.41-1.625.142-.543.32-1.077.478-1.608.189-.52.343-1.044.534-1.536.187-.493.358-.974.544-1.42.178-.452.358-.872.524-1.262l.466-1.057c.146-.31.27-.585.38-.806l.155-.315.01.052 9.983-2.02a34.07 34.07 0 001.182 1.843c.302.43.614.889.965 1.341.342.46.706.927 1.09 1.39.372.473.785.923 1.18 1.389.406.456.831.894 1.24 1.335.204.212.412.418.618.62.075-.107.152-.22.232-.344l.02-.036-.54-.561c-.401-.441-.818-.88-1.217-1.335-.395-.459-.809-.9-1.182-1.366l-.569-.679c-.187-.223-.363-.452-.542-.673-.357-.442-.689-.879-1.008-1.292a94.863 94.863 0 01-.873-1.18c-.145-.208-.285-.403-.417-.589l5.344-9.856a60.02 60.02 0 001.017-.135c.201-.034.415-.046.634-.067.22-.02.447-.042.68-.065l1.466-.148c.506-.066 1.036-.077 1.57-.127l1.621-.129c.544-.04 1.089-.067 1.624-.101.536-.027 1.063-.081 1.574-.098a7876.991 7876.991 0 014.435-.233l7.667 11.08a59.6 59.6 0 00-.772 1.313c-.332.577-.71 1.255-1.108 1.986-.196.367-.405.743-.606 1.13l-.482.92c.159.04.312.085.46.136l.428-.841c.2-.39.385-.777.57-1.15a90.704 90.704 0 001.588-3.41l9.015.481c.09.181.192.39.309.624.072.142.143.296.213.46l.233.513c.158.357.346.737.512 1.154.17.415.36.847.54 1.3l.533 1.409c.165.485.35.972.502 1.47.155.497.326.99.457 1.485l.21.733c.063.243.126.483.186.72.126.472.227.934.331 1.37.092.438.185.853.257 1.237.072.386.14.739.192 1.053l.007.044-1.2 2.38h4.276c.054-.36.102-.723.144-1.089.22-1.902.254-3.869.12-5.857-.134-1.99-.463-4-.982-5.989a31.872 31.872 0 00-2.145-5.841 31.861 31.861 0 00-3.286-5.398l-.481-.634c-.163-.209-.34-.407-.509-.611l-.513-.609c-.169-.204-.366-.396-.547-.595-.37-.394-.745-.801-1.11-1.14l-.556-.523-.155-.113-.103-.029-.061-.055-.002-.072-.265-.3a32.52 32.52 0 00-5.125-3.743 31.361 31.361 0 00-5.707-2.629A31.406 31.406 0 0041.977.05c-3.944.208-7.686 1.189-10.982 2.636a29.58 29.58 0 00-4.6 2.51 17.26 17.26 0 00-1.034.716c-.332.25-.67.486-.989.74l-.938.768c-.311.25-.594.53-.887.789l-.433.392c-.143.131-.277.274-.415.41l-.81.814-.726.807-.356.398-.344.435-.653.828-.319.405c-.105.135-.195.28-.292.417l-.562.822-.275.402-.135.198-.122.205c-1.367 2.137-2.215 4.19-2.85 5.877l-.413 1.213-.094.281-.075.28-.14.528c-.177.68-.34 1.251-.417 1.727l-.277 1.449s.148-.492.422-1.413c.121-.467.336-1.02.572-1.67.22-.655.55-1.38.901-2.196.164-.413.391-.824.612-1.261l.344-.669c.059-.113.114-.23.179-.344l.203-.34.853-1.425 1.005-1.47.132-.19.146-.18c.027-.035.056-.069.084-.103.183.077.383.155.603.233.195.07.401.136.61.2l1.289 7.07c-.063.094-.137.209-.22.347-.133.21-.281.472-.458.77-.167.301-.363.64-.554 1.02-.194.38-.405.79-.603 1.236-.21.442-.41.917-.61 1.412-.105.245-.197.5-.292.758l-.286.782c-.165.536-.352 1.075-.502 1.626l-.212.828c-.035.138-.073.274-.104.413l-.084.414c-.114.55-.224 1.093-.285 1.626l-.103.782c-.04.254-.037.509-.057.753-.023.49-.075.952-.05 1.381l.012.463h.24zm2.483-23.12c.102-.127.22-.24.33-.362l.332-.37.679-.753c.11-.123.199-.267.31-.392.063-.062.12-.129.176-.196.058-.069.116-.137.18-.201l.767-.768.797-.72c.136-.12.266-.246.408-.363l.432-.352c.292-.232.573-.483.882-.705l.927-.682c.315-.226.647-.432.973-.651.324-.224.667-.425 1.013-.626A32.998 32.998 0 0130.15 5.18a14.244 14.244 0 00-.427 1.43c-.791.367-2.87 1.414-5.302 3.316-3.27 2.558-4.652 4.44-4.934 4.85a10.898 10.898 0 00-.976-.21c.193-.245.4-.484.598-.737zM42.073 2.382c1.831-.05 3.697.056 5.557.347 1.86.293 3.712.764 5.519 1.409.259.092.516.19.773.29l-2.999 4.794c-.439-.023-.99-.05-1.624-.06-.41-.01-.855-.023-1.326-.015l-1.48.015c-.513.005-1.043.032-1.58.057-.54.029-1.086.05-1.633.085-.546.05-1.092.098-1.629.146l-.798.075c-.263.023-.522.056-.776.094l-1.467.213c-.465.073-.907.127-1.31.214-.328.07-.632.137-.91.2L30.216 6.55a13.637 13.637 0 00.342-1.27l.067-.317a30.82 30.82 0 0111.448-2.58zm30.114 22.283c.516 1.829.85 3.686 1.03 5.528.164 1.684.174 3.355.077 4.99l-.931-.555-.008-.124c-.02-.321-.051-.682-.099-1.075a26.282 26.282 0 00-.178-1.264c-.083-.445-.155-.919-.272-1.4l-.165-.734-.196-.746c-.127-.504-.295-1.004-.447-1.509-.159-.503-.352-.994-.523-1.483-.18-.487-.392-.952-.578-1.41-.192-.454-.41-.88-.603-1.288-.186-.412-.404-.78-.591-1.127-.192-.345-.357-.666-.534-.933a774.85 774.85 0 00-.401-.637l.26-5.177a30.203 30.203 0 012.098 3.584 31.401 31.401 0 012.061 5.36zM51.986 66.278L43.5 74.853l-8.486-8.575h-2.122L43.5 77l10.608-10.722h-2.122zM11.726 42.74l-2.318-2.342h68.184l-2.317 2.342h2.122l3.819-3.859H5.784l3.819 3.86h2.122zm35.113-5.86a1.81 1.81 0 00-1.8-1.819c-.994 0-1.8.815-1.8 1.82a1.81 1.81 0 001.8 1.818c.994 0 1.8-.814 1.8-1.819z"/></g><defs><filter id="bfilter0_d_701_3005" x="0" y="0" width="87" height="85" filterUnits="userSpaceOnUse" color-interpolation-filters="sRGB"><feFlood flood-opacity="0" result="BackgroundImageFix"/><feColorMatrix in="SourceAlpha" values="0 0 0 0 0 0 0 0 0 0 0 0 0 0 0 0 0 0 127 0" result="hardAlpha"/><feOffset dy="4"/><feGaussianBlur stdDeviation="2"/><feComposite in2="hardAlpha" operator="out"/><feColorMatrix values="0 0 0 0 0 0 0 0 0 0 0 0 0 0 0 0 0 0 0.25 0"/><feBlend in2="BackgroundImageFix" result="effect1_dropShadow_701_3005"/><feBlend in="SourceGraphic" in2="effect1_dropShadow_701_3005" result="shape"/></filter></defs></svg></svg>